<svg xmlns="http://www.w3.org/2000/svg" xmlns:xlink="http://www.w3.org/1999/xlink" width="800" zoomAndPan="magnify" viewBox="0 0 600 899.99999" height="1200" preserveAspectRatio="xMidYMid meet" version="1.0"><defs><clipPath id="bb990177b1"><path d="M 271.5 367.527344 L 436 367.527344 L 436 532 L 271.5 532 Z M 271.5 367.527344 " clip-rule="nonzero"/></clipPath><clipPath id="c3a37c6e81"><path d="M 91 250 L 539.664062 250 L 539.664062 699.132812 L 91 699.132812 Z M 91 250 " clip-rule="nonzero"/></clipPath><clipPath id="6759eb50a9"><path d="M 278 587 L 524 587 L 524 699.132812 L 278 699.132812 Z M 278 587 " clip-rule="nonzero"/></clipPath><clipPath id="b293899071"><path d="M 503 540 L 539.664062 540 L 539.664062 577 L 503 577 Z M 503 540 " clip-rule="nonzero"/></clipPath></defs><g clip-path="url(#bb990177b1)"><path fill="#f44336" d="M 359.992188 449.570312 L 434.25 375.3125 C 434.46875 375.101562 434.660156 374.871094 434.832031 374.621094 C 435.003906 374.371094 435.152344 374.109375 435.269531 373.832031 C 435.390625 373.554688 435.480469 373.265625 435.542969 372.96875 C 435.605469 372.675781 435.636719 372.375 435.640625 372.070312 C 435.644531 371.769531 435.617188 371.46875 435.558594 371.171875 C 435.5 370.875 435.414062 370.585938 435.300781 370.304688 C 435.1875 370.027344 435.046875 369.761719 434.878906 369.507812 C 434.710938 369.257812 434.519531 369.023438 434.304688 368.808594 C 434.089844 368.59375 433.859375 368.40625 433.605469 368.238281 C 433.355469 368.070312 433.089844 367.929688 432.808594 367.8125 C 432.527344 367.699219 432.238281 367.613281 431.941406 367.554688 C 431.644531 367.5 431.347656 367.472656 431.042969 367.472656 C 430.742188 367.476562 430.441406 367.507812 430.144531 367.570312 C 429.847656 367.632812 429.5625 367.726562 429.285156 367.84375 C 429.003906 367.964844 428.742188 368.109375 428.492188 368.28125 C 428.246094 368.453125 428.015625 368.648438 427.804688 368.867188 L 353.546875 443.125 L 279.285156 368.855469 C 279.074219 368.652344 278.84375 368.46875 278.59375 368.308594 C 278.34375 368.148438 278.082031 368.011719 277.808594 367.902344 C 277.535156 367.792969 277.25 367.710938 276.960938 367.65625 C 276.667969 367.601562 276.375 367.574219 276.078125 367.578125 C 275.785156 367.578125 275.492188 367.609375 275.203125 367.671875 C 274.910156 367.730469 274.628906 367.816406 274.355469 367.933594 C 274.085938 368.046875 273.824219 368.1875 273.578125 368.351562 C 273.332031 368.515625 273.105469 368.703125 272.898438 368.914062 C 272.6875 369.121094 272.5 369.347656 272.335938 369.59375 C 272.171875 369.839844 272.03125 370.101562 271.917969 370.371094 C 271.800781 370.644531 271.714844 370.925781 271.65625 371.21875 C 271.59375 371.507812 271.5625 371.800781 271.5625 372.09375 C 271.558594 372.390625 271.585938 372.683594 271.640625 372.976562 C 271.695312 373.265625 271.777344 373.550781 271.886719 373.824219 C 271.996094 374.097656 272.132812 374.359375 272.292969 374.609375 C 272.453125 374.859375 272.636719 375.089844 272.839844 375.300781 L 347.101562 449.570312 L 272.832031 523.828125 C 272.613281 524.039062 272.417969 524.269531 272.246094 524.519531 C 272.074219 524.765625 271.929688 525.03125 271.8125 525.308594 C 271.691406 525.585938 271.601562 525.875 271.539062 526.167969 C 271.476562 526.464844 271.441406 526.765625 271.441406 527.066406 C 271.4375 527.371094 271.464844 527.671875 271.523438 527.96875 C 271.578125 528.265625 271.664062 528.554688 271.78125 528.832031 C 271.894531 529.113281 272.035156 529.378906 272.203125 529.632812 C 272.371094 529.882812 272.5625 530.117188 272.777344 530.332031 C 272.988281 530.542969 273.222656 530.734375 273.472656 530.902344 C 273.726562 531.070312 273.992188 531.210938 274.273438 531.324219 C 274.550781 531.441406 274.839844 531.527344 275.136719 531.582031 C 275.4375 531.640625 275.734375 531.667969 276.039062 531.664062 C 276.339844 531.664062 276.640625 531.628906 276.9375 531.566406 C 277.230469 531.503906 277.519531 531.414062 277.796875 531.296875 C 278.074219 531.175781 278.339844 531.03125 278.589844 530.859375 C 278.835938 530.6875 279.066406 530.492188 279.277344 530.273438 L 353.546875 456.015625 L 427.804688 530.273438 C 428.015625 530.480469 428.246094 530.664062 428.496094 530.824219 C 428.746094 530.984375 429.007812 531.121094 429.28125 531.230469 C 429.554688 531.339844 429.839844 531.421875 430.128906 531.476562 C 430.421875 531.53125 430.714844 531.554688 431.011719 531.554688 C 431.304688 531.550781 431.597656 531.519531 431.890625 531.460938 C 432.179688 531.402344 432.460938 531.3125 432.734375 531.199219 C 433.007812 531.085938 433.265625 530.945312 433.511719 530.78125 C 433.757812 530.613281 433.984375 530.429688 434.195312 530.21875 C 434.402344 530.007812 434.589844 529.78125 434.753906 529.535156 C 434.921875 529.289062 435.058594 529.03125 435.175781 528.757812 C 435.289062 528.484375 435.375 528.203125 435.4375 527.914062 C 435.496094 527.625 435.527344 527.332031 435.527344 527.035156 C 435.53125 526.738281 435.503906 526.445312 435.449219 526.15625 C 435.394531 525.863281 435.3125 525.582031 435.203125 525.304688 C 435.09375 525.03125 434.960938 524.769531 434.796875 524.519531 C 434.636719 524.273438 434.453125 524.042969 434.25 523.828125 Z M 359.992188 449.570312 " fill-opacity="1" fill-rule="nonzero"/></g><path fill="#b18aff" d="M 223.007812 618.546875 L 171.167969 648.46875 L 126.285156 570.714844 L 178.125 540.792969 L 223.007812 618.546875 " fill-opacity="1" fill-rule="nonzero"/><path fill="#eba4ff" d="M 532.511719 437.640625 L 491.71875 400.472656 L 508.464844 347.875 L 454.550781 336.070312 L 442.746094 282.160156 L 390.148438 298.902344 L 352.980469 258.109375 L 315.8125 298.902344 L 263.214844 282.160156 L 251.410156 336.070312 L 197.496094 347.875 L 214.242188 400.472656 L 173.449219 437.640625 L 214.242188 474.8125 L 197.496094 527.410156 L 198.695312 527.671875 C 222.011719 510.78125 241.007812 488.488281 253.863281 462.539062 L 326.125 587.691406 L 352.980469 617.175781 L 390.148438 576.382812 L 442.746094 593.125 L 454.550781 539.214844 L 508.464844 527.410156 L 491.71875 474.8125 L 532.511719 437.640625 " fill-opacity="1" fill-rule="nonzero"/><path fill="#d390e6" d="M 204.304688 586.140625 L 223.007812 618.546875 L 228.121094 615.597656 C 243.34375 606.800781 259.679688 600.402344 276.625 596.371094 C 293.632812 592.453125 311.105469 590.992188 328.667969 592.101562 L 276.304688 501.402344 C 262.953125 537.082031 237.527344 566.972656 204.511719 586.054688 L 204.304688 586.140625 " fill-opacity="1" fill-rule="nonzero"/><path fill="#d390e6" d="M 120.820312 591.167969 L 117.082031 584.679688 L 126.285156 570.714844 L 171.167969 648.46875 L 121.085938 651.480469 L 113.222656 637.863281 C 126.285156 626.320312 129.851562 606.832031 120.820312 591.167969 " fill-opacity="1" fill-rule="nonzero"/><path fill="#d390e6" d="M 184.144531 640.988281 L 195.480469 660.597656 C 204.070312 657.117188 214.125 659.253906 220.464844 666.207031 L 238.933594 686.398438 C 246.585938 679.121094 247.347656 666.675781 239.835938 658.492188 L 210.03125 626.027344 L 184.144531 640.988281 " fill-opacity="1" fill-rule="nonzero"/><path fill="#eba4ff" d="M 517.550781 624.65625 L 472.667969 624.65625 L 495.109375 594.734375 Z M 517.550781 624.65625 " fill-opacity="1" fill-rule="nonzero"/><path fill="#eba4ff" d="M 188.410156 288.03125 L 143.527344 288.03125 L 165.96875 258.109375 Z M 188.410156 288.03125 " fill-opacity="1" fill-rule="nonzero"/><path fill="#020102" d="M 266.953125 391.210938 C 268.125 391.910156 269.410156 392.203125 270.695312 392.203125 C 273.265625 392.203125 275.777344 390.890625 277.183594 388.464844 L 288.402344 369.0625 L 301.347656 376.542969 C 302.546875 377.214844 303.800781 377.535156 305.085938 377.535156 C 307.660156 377.535156 310.171875 376.191406 311.574219 373.796875 C 313.621094 370.199219 312.421875 365.640625 308.828125 363.566406 L 295.882812 356.085938 L 303.363281 343.140625 L 322.796875 354.363281 C 326.359375 356.410156 330.949219 355.179688 333.023438 351.617188 C 335.066406 348.050781 333.839844 343.464844 330.277344 341.390625 L 304.355469 326.429688 C 300.761719 324.355469 296.203125 325.582031 294.128906 329.175781 L 264.207031 380.984375 C 262.164062 384.578125 263.390625 389.164062 266.953125 391.210938 " fill-opacity="1" fill-rule="nonzero"/><path fill="#020102" d="M 360.636719 442.785156 C 361.160156 444.683594 362.417969 446.320312 364.113281 447.3125 L 390.03125 462.273438 C 391.230469 462.976562 392.515625 463.269531 393.773438 463.269531 C 396.371094 463.269531 398.886719 461.925781 400.257812 459.527344 C 402.332031 455.964844 401.105469 451.40625 397.511719 449.332031 L 378.082031 438.109375 L 385.5625 425.164062 L 398.535156 432.644531 C 399.703125 433.316406 400.988281 433.640625 402.246094 433.640625 C 404.847656 433.640625 407.359375 432.296875 408.734375 429.898438 C 410.808594 426.304688 409.582031 421.746094 406.015625 419.671875 L 393.042969 412.191406 L 400.523438 399.246094 L 419.953125 410.46875 C 423.546875 412.511719 428.105469 411.285156 430.179688 407.71875 C 432.257812 404.15625 431.027344 399.566406 427.433594 397.492188 L 401.515625 382.53125 C 397.949219 380.457031 393.363281 381.683594 391.316406 385.277344 L 361.394531 437.085938 C 360.402344 438.8125 360.140625 440.855469 360.636719 442.785156 " fill-opacity="1" fill-rule="nonzero"/><path fill="#020102" d="M 413.203125 467.007812 C 412.210938 468.734375 411.949219 470.777344 412.472656 472.707031 C 412.96875 474.605469 414.226562 476.242188 415.949219 477.238281 L 441.871094 492.199219 C 443.039062 492.898438 444.324219 493.191406 445.609375 493.191406 C 448.179688 493.191406 450.695312 491.847656 452.097656 489.449219 C 454.140625 485.886719 452.914062 481.328125 449.351562 479.253906 L 429.917969 468.03125 L 437.398438 455.085938 L 450.34375 462.566406 C 451.542969 463.238281 452.828125 463.5625 454.082031 463.5625 C 456.65625 463.5625 459.199219 462.21875 460.570312 459.820312 C 462.644531 456.226562 461.417969 451.667969 457.824219 449.59375 L 444.878906 442.113281 L 452.359375 429.167969 L 471.792969 440.390625 C 475.386719 442.464844 479.945312 441.207031 482.019531 437.640625 C 484.0625 434.078125 482.835938 429.488281 479.273438 427.414062 L 453.351562 412.453125 C 449.757812 410.378906 445.199219 411.636719 443.125 415.199219 L 413.203125 467.007812 " fill-opacity="1" fill-rule="nonzero"/><path fill="#020102" d="M 348.714844 369.324219 L 355.171875 373.066406 C 358.765625 375.109375 359.992188 379.699219 357.917969 383.261719 C 356.925781 385.015625 355.316406 386.242188 353.390625 386.769531 C 351.460938 387.265625 349.445312 387.003906 347.691406 386.007812 L 341.234375 382.269531 Z M 309.558594 407.164062 C 307.484375 410.757812 308.710938 415.347656 312.304688 417.390625 C 315.871094 419.46875 320.457031 418.238281 322.53125 414.644531 L 333.753906 395.242188 L 340.210938 398.984375 C 343.804688 401.027344 345.03125 405.617188 342.957031 409.179688 L 335.476562 422.125 C 333.402344 425.71875 334.628906 430.308594 338.222656 432.351562 C 339.390625 433.054688 340.679688 433.347656 341.964844 433.347656 C 344.535156 433.347656 347.046875 432.03125 348.421875 429.605469 L 355.929688 416.660156 C 358.796875 411.695312 359.46875 406.054688 358.355469 400.796875 C 363.617188 399.101562 368.085938 395.621094 370.890625 390.742188 C 377.058594 380.046875 373.375 366.285156 362.652344 360.089844 L 349.707031 352.609375 C 346.113281 350.535156 341.554688 351.792969 339.480469 355.355469 L 309.558594 407.164062 " fill-opacity="1" fill-rule="nonzero"/><g clip-path="url(#c3a37c6e81)"><path fill="#020102" d="M 237.472656 673.890625 C 236.886719 677.660156 234.664062 680.90625 231.363281 682.804688 C 225.402344 686.28125 217.71875 684.207031 214.296875 678.246094 L 194.339844 643.734375 L 208.601562 635.496094 L 234.316406 663.546875 C 236.886719 666.351562 238.027344 670.121094 237.472656 673.890625 Z M 116.351562 628.308594 L 122.808594 624.566406 C 126.402344 622.492188 127.628906 617.90625 125.554688 614.339844 C 123.480469 610.773438 118.921875 609.519531 115.328125 611.59375 L 108.871094 615.332031 L 107.4375 612.851562 L 125.875 584.945312 L 158.632812 641.71875 L 125.261719 643.734375 Z M 219.296875 469.289062 L 184.550781 437.640625 L 219.296875 405.996094 C 221.457031 404.039062 222.277344 400.96875 221.371094 398.195312 L 207.109375 353.429688 L 253.015625 343.40625 C 255.878906 342.761719 258.101562 340.542969 258.742188 337.679688 L 268.765625 291.800781 L 313.53125 306.03125 C 316.308594 306.910156 319.375 306.089844 321.335938 303.957031 L 352.980469 269.214844 L 384.625 303.957031 C 386.585938 306.089844 389.652344 306.910156 392.429688 306.03125 L 437.195312 291.800781 L 447.21875 337.679688 C 447.859375 340.542969 450.082031 342.761719 452.945312 343.40625 L 498.851562 353.429688 L 484.589844 398.195312 C 483.683594 400.96875 484.503906 404.039062 486.664062 405.996094 L 521.410156 437.640625 L 486.664062 469.289062 C 484.503906 471.246094 483.683594 474.3125 484.589844 477.089844 L 498.851562 521.855469 L 452.945312 531.878906 C 450.082031 532.523438 447.859375 534.742188 447.21875 537.605469 L 437.195312 583.484375 L 392.429688 569.253906 C 389.652344 568.375 386.585938 569.195312 384.625 571.328125 L 352.980469 606.070312 L 332.175781 583.25 L 260.320312 458.796875 C 258.949219 456.402344 256.375 454.851562 253.601562 455.058594 C 250.855469 455.144531 248.371094 456.722656 247.144531 459.207031 C 238.203125 477.292969 226.191406 493.425781 211.816406 507.128906 L 221.371094 477.089844 C 222.277344 474.3125 221.457031 471.246094 219.296875 469.289062 Z M 225.753906 608.378906 L 188.320312 543.507812 C 215.585938 527.4375 238.113281 504.96875 254.066406 477.851562 L 315.488281 584.242188 C 284.019531 584.503906 253.308594 592.773438 225.753906 608.378906 Z M 173.914062 638.242188 L 166.433594 625.296875 L 179.378906 617.816406 C 182.972656 615.742188 184.203125 611.183594 182.125 607.589844 C 180.050781 603.996094 175.492188 602.796875 171.898438 604.84375 L 158.953125 612.324219 L 151.472656 599.378906 L 164.417969 591.898438 C 168.011719 589.824219 169.242188 585.265625 167.164062 581.671875 C 165.089844 578.105469 160.53125 576.851562 156.9375 578.953125 L 143.992188 586.433594 L 136.511719 573.460938 L 175.375 551.019531 L 212.777344 615.800781 Z M 221.867188 627.839844 L 231.859375 622.082031 C 260.703125 605.398438 293.515625 597.625 326.769531 599.523438 L 347.457031 622.199219 C 348.859375 623.777344 350.875 624.65625 352.980469 624.65625 C 355.085938 624.65625 357.101562 623.777344 358.503906 622.199219 L 392.457031 584.972656 L 440.46875 600.253906 C 442.484375 600.898438 444.675781 600.664062 446.488281 599.613281 C 448.296875 598.5625 449.613281 596.777344 450.050781 594.703125 L 460.832031 545.464844 L 510.042969 534.714844 C 512.117188 534.273438 513.898438 532.960938 514.949219 531.148438 C 516.003906 529.335938 516.234375 527.144531 515.59375 525.128906 L 500.3125 477.121094 L 537.539062 443.164062 C 539.117188 441.761719 539.992188 439.746094 539.992188 437.640625 C 539.992188 435.539062 539.117188 433.523438 537.539062 432.121094 L 500.3125 398.164062 L 515.59375 350.15625 C 516.234375 348.140625 516.003906 345.949219 514.949219 344.136719 C 513.898438 342.324219 512.117188 341.007812 510.042969 340.570312 L 460.832031 329.816406 L 450.050781 280.582031 C 449.613281 278.507812 448.296875 276.722656 446.488281 275.671875 C 444.675781 274.648438 442.484375 274.386719 440.46875 275.027344 L 392.457031 290.3125 L 358.503906 253.085938 C 355.667969 249.957031 350.292969 249.957031 347.457031 253.085938 L 313.503906 290.3125 L 265.492188 275.027344 C 263.476562 274.386719 261.285156 274.648438 259.472656 275.671875 C 257.664062 276.722656 256.347656 278.507812 255.910156 280.582031 L 245.125 329.816406 L 195.917969 340.570312 C 193.84375 341.007812 192.0625 342.324219 191.011719 344.136719 C 189.957031 345.949219 189.722656 348.140625 190.367188 350.15625 L 205.648438 398.164062 L 168.421875 432.121094 C 166.84375 433.523438 165.96875 435.539062 165.96875 437.640625 C 165.96875 439.746094 166.84375 441.761719 168.421875 443.164062 L 205.648438 477.121094 L 190.628906 524.339844 C 187.007812 526.824219 183.324219 529.160156 179.496094 531.382812 L 122.546875 564.253906 C 121.550781 564.839844 120.703125 565.628906 120.0625 566.59375 L 92.390625 608.496094 C 90.839844 610.832031 90.753906 613.871094 92.15625 616.355469 L 99.636719 629.300781 C 99.636719 629.300781 99.636719 629.300781 99.664062 629.300781 L 114.597656 655.21875 C 115.941406 657.527344 118.425781 658.960938 121.085938 658.960938 C 121.230469 658.960938 121.375 658.929688 121.523438 658.929688 L 171.636719 655.921875 C 172.777344 655.863281 173.914062 655.511719 174.910156 654.957031 L 181.394531 651.214844 L 201.324219 685.726562 C 206.410156 694.523438 215.671875 699.460938 225.140625 699.460938 C 229.816406 699.460938 234.519531 698.261719 238.84375 695.777344 C 246.089844 691.597656 250.972656 684.441406 252.257812 676.171875 C 253.511719 667.902344 251 659.601562 245.332031 653.4375 L 221.867188 627.839844 " fill-opacity="1" fill-rule="nonzero"/></g><path fill="#020102" d="M 368.992188 482.410156 C 366.917969 478.84375 362.359375 477.617188 358.765625 479.691406 L 319.902344 502.132812 C 316.335938 504.207031 315.109375 508.765625 317.15625 512.332031 C 318.558594 514.753906 321.070312 516.070312 323.644531 516.070312 C 324.929688 516.070312 326.214844 515.777344 327.382812 515.078125 L 366.246094 492.636719 C 369.839844 490.589844 371.066406 486.003906 368.992188 482.410156 " fill-opacity="1" fill-rule="nonzero"/><path fill="#020102" d="M 375.304688 531.527344 L 341.90625 533.542969 C 337.785156 533.777344 334.628906 537.3125 334.890625 541.433594 C 335.125 545.410156 338.398438 548.476562 342.34375 548.476562 C 342.488281 548.476562 342.636719 548.476562 342.8125 548.476562 L 376.179688 546.460938 C 380.332031 546.226562 383.457031 542.660156 383.195312 538.542969 C 382.960938 534.421875 379.425781 531.265625 375.304688 531.527344 " fill-opacity="1" fill-rule="nonzero"/><path fill="#020102" d="M 327.5 442.054688 C 324.050781 439.777344 319.433594 440.738281 317.125 444.1875 L 298.6875 472.09375 C 296.4375 475.542969 297.375 480.1875 300.820312 482.4375 C 302.105469 483.285156 303.539062 483.695312 304.941406 483.695312 C 307.367188 483.695312 309.734375 482.496094 311.195312 480.332031 L 329.632812 452.429688 C 331.882812 448.980469 330.949219 444.332031 327.5 442.054688 " fill-opacity="1" fill-rule="nonzero"/><path fill="#020102" d="M 164.332031 270.585938 L 171.8125 280.550781 L 156.851562 280.550781 Z M 141.890625 295.511719 L 156.851562 295.511719 L 156.851562 344.136719 C 156.851562 354.449219 148.464844 362.835938 138.148438 362.835938 C 119.59375 362.835938 104.488281 377.945312 104.488281 396.5 L 104.488281 557.332031 C 104.488281 561.449219 107.847656 564.8125 111.96875 564.8125 C 116.089844 564.8125 119.449219 561.449219 119.449219 557.332031 L 119.449219 396.5 C 119.449219 386.183594 127.835938 377.796875 138.148438 377.796875 C 156.703125 377.796875 171.8125 362.691406 171.8125 344.136719 L 171.8125 295.511719 L 186.773438 295.511719 C 189.605469 295.511719 192.207031 293.90625 193.464844 291.394531 C 194.722656 288.851562 194.457031 285.8125 192.761719 283.5625 L 170.320312 253.640625 C 167.488281 249.871094 161.175781 249.871094 158.339844 253.640625 L 135.898438 283.5625 C 134.203125 285.8125 133.941406 288.851562 135.199219 291.394531 C 136.453125 293.90625 139.054688 295.511719 141.890625 295.511719 " fill-opacity="1" fill-rule="nonzero"/><g clip-path="url(#6759eb50a9)"><path fill="#020102" d="M 493.472656 607.210938 L 500.953125 617.175781 L 485.992188 617.175781 Z M 499.464844 590.261719 C 496.628906 586.492188 490.316406 586.492188 487.484375 590.261719 L 465.042969 620.183594 C 463.347656 622.433594 463.082031 625.472656 464.339844 628.015625 C 465.597656 630.527344 468.199219 632.136719 471.03125 632.136719 L 487.628906 632.136719 L 487.628906 662.058594 C 487.628906 674.445312 477.578125 684.5 465.1875 684.5 L 285.65625 684.5 C 281.535156 684.5 278.175781 687.859375 278.175781 691.980469 C 278.175781 696.097656 281.535156 699.460938 285.65625 699.460938 L 465.1875 699.460938 C 485.816406 699.460938 502.589844 682.6875 502.589844 662.058594 L 502.589844 632.136719 L 515.914062 632.136719 C 518.75 632.136719 521.351562 630.527344 522.605469 628.015625 C 523.863281 625.472656 523.601562 622.433594 521.90625 620.183594 L 499.464844 590.261719 " fill-opacity="1" fill-rule="nonzero"/></g><path fill="#020102" d="M 113.605469 317.953125 C 117.722656 317.953125 121.085938 321.316406 121.085938 325.433594 C 121.085938 329.554688 117.722656 332.914062 113.605469 332.914062 C 109.484375 332.914062 106.125 329.554688 106.125 325.433594 C 106.125 321.316406 109.484375 317.953125 113.605469 317.953125 Z M 113.605469 347.875 C 125.992188 347.875 136.046875 337.824219 136.046875 325.433594 C 136.046875 313.046875 125.992188 302.992188 113.605469 302.992188 C 101.214844 302.992188 91.164062 313.046875 91.164062 325.433594 C 91.164062 337.824219 101.214844 347.875 113.605469 347.875 " fill-opacity="1" fill-rule="nonzero"/><path fill="#020102" d="M 420.304688 647.097656 C 420.304688 651.214844 416.945312 654.578125 412.824219 654.578125 C 408.703125 654.578125 405.34375 651.214844 405.34375 647.097656 C 405.34375 642.976562 408.703125 639.617188 412.824219 639.617188 C 416.945312 639.617188 420.304688 642.976562 420.304688 647.097656 Z M 390.382812 647.097656 C 390.382812 659.484375 400.433594 669.539062 412.824219 669.539062 C 425.214844 669.539062 435.265625 659.484375 435.265625 647.097656 C 435.265625 634.707031 425.214844 624.65625 412.824219 624.65625 C 400.433594 624.65625 390.382812 634.707031 390.382812 647.097656 " fill-opacity="1" fill-rule="nonzero"/><path fill="#020102" d="M 170.4375 483.109375 C 167.515625 480.1875 162.78125 480.1875 159.859375 483.109375 L 154.570312 488.398438 L 149.28125 483.109375 C 146.359375 480.1875 141.625 480.1875 138.703125 483.109375 C 135.78125 486.03125 135.78125 490.765625 138.703125 493.6875 L 143.992188 498.976562 L 138.703125 504.265625 C 135.78125 507.1875 135.78125 511.921875 138.703125 514.84375 C 140.164062 516.304688 142.066406 517.035156 143.992188 517.035156 C 145.894531 517.035156 147.820312 516.304688 149.28125 514.84375 L 154.570312 509.554688 L 159.859375 514.84375 C 161.320312 516.304688 163.25 517.035156 165.148438 517.035156 C 167.078125 517.035156 168.976562 516.304688 170.4375 514.84375 C 173.359375 511.921875 173.359375 507.1875 170.4375 504.265625 L 165.148438 498.976562 L 170.4375 493.6875 C 173.359375 490.765625 173.359375 486.03125 170.4375 483.109375 " fill-opacity="1" fill-rule="nonzero"/><g clip-path="url(#b293899071)"><path fill="#020102" d="M 536.984375 542.953125 C 534.0625 540.03125 529.328125 540.03125 526.40625 542.953125 L 521.117188 548.242188 L 515.828125 542.953125 C 512.90625 540.03125 508.171875 540.03125 505.25 542.953125 C 502.328125 545.875 502.328125 550.609375 505.25 553.53125 L 510.539062 558.820312 L 505.25 564.109375 C 502.328125 567.03125 502.328125 571.765625 505.25 574.6875 C 506.710938 576.148438 508.609375 576.878906 510.539062 576.878906 C 512.4375 576.878906 514.367188 576.148438 515.828125 574.6875 L 521.117188 569.398438 L 526.40625 574.6875 C 527.867188 576.148438 529.792969 576.878906 531.695312 576.878906 C 533.621094 576.878906 535.523438 576.148438 536.984375 574.6875 C 539.90625 571.765625 539.90625 567.03125 536.984375 564.109375 L 531.695312 558.820312 L 536.984375 553.53125 C 539.90625 550.609375 539.90625 545.875 536.984375 542.953125 " fill-opacity="1" fill-rule="nonzero"/></g></svg>