<svg xmlns="http://www.w3.org/2000/svg" xmlns:xlink="http://www.w3.org/1999/xlink" width="1080" zoomAndPan="magnify" viewBox="0 0 810 809.999993" height="1080" preserveAspectRatio="xMidYMid meet" version="1.0"><defs><clipPath id="d162b1b2fa"><path d="M 411 175.253906 L 419 175.253906 L 419 695.753906 L 411 695.753906 Z M 411 175.253906 " clip-rule="nonzero"/></clipPath><clipPath id="c0941da81d"><path d="M 378.441406 365.269531 L 456.441406 365.269531 L 456.441406 468.769531 L 378.441406 468.769531 Z M 378.441406 365.269531 " clip-rule="nonzero"/></clipPath></defs><g clip-path="url(#d162b1b2fa)"><path fill="#000000" d="M 411.050781 162.695312 L 411.050781 136.824219 C 411.050781 134.855469 412.644531 133.265625 414.617188 133.265625 C 416.582031 133.265625 418.179688 134.855469 418.179688 136.824219 L 418.179688 162.695312 C 418.179688 164.660156 416.582031 166.25 414.617188 166.25 C 412.644531 166.25 411.050781 164.660156 411.050781 162.695312 Z M 411.050781 214.4375 L 411.050781 188.570312 C 411.050781 186.601562 412.644531 185.011719 414.617188 185.011719 C 416.582031 185.011719 418.179688 186.601562 418.179688 188.570312 L 418.179688 214.4375 C 418.179688 216.40625 416.582031 217.996094 414.617188 217.996094 C 412.644531 217.996094 411.050781 216.40625 411.050781 214.4375 Z M 411.050781 266.183594 L 411.050781 240.308594 C 411.050781 238.347656 412.644531 236.753906 414.617188 236.753906 C 416.582031 236.753906 418.179688 238.347656 418.179688 240.308594 L 418.179688 266.183594 C 418.179688 268.152344 416.582031 269.742188 414.617188 269.742188 C 412.644531 269.742188 411.050781 268.152344 411.050781 266.183594 Z M 411.050781 317.929688 L 411.050781 292.054688 C 411.050781 290.09375 412.644531 288.5 414.617188 288.5 C 416.582031 288.5 418.179688 290.09375 418.179688 292.054688 L 418.179688 317.929688 C 418.179688 319.890625 416.582031 321.488281 414.617188 321.488281 C 412.644531 321.488281 411.050781 319.890625 411.050781 317.929688 Z M 411.050781 369.671875 L 411.050781 343.800781 C 411.050781 341.835938 412.644531 340.242188 414.617188 340.242188 C 416.582031 340.242188 418.179688 341.835938 418.179688 343.800781 L 418.179688 369.671875 C 418.179688 371.636719 416.582031 373.230469 414.617188 373.230469 C 412.644531 373.230469 411.050781 371.636719 411.050781 369.671875 Z M 411.050781 421.417969 L 411.050781 395.546875 C 411.050781 393.582031 412.644531 391.988281 414.617188 391.988281 C 416.582031 391.988281 418.179688 393.582031 418.179688 395.546875 L 418.179688 421.417969 C 418.179688 423.382812 416.582031 424.972656 414.617188 424.972656 C 412.644531 424.972656 411.050781 423.382812 411.050781 421.417969 Z M 411.050781 473.164062 L 411.050781 447.292969 C 411.050781 445.328125 412.644531 443.734375 414.617188 443.734375 C 416.582031 443.734375 418.179688 445.328125 418.179688 447.292969 L 418.179688 473.164062 C 418.179688 475.128906 416.582031 476.71875 414.617188 476.71875 C 412.644531 476.71875 411.050781 475.128906 411.050781 473.164062 Z M 411.050781 524.910156 L 411.050781 499.03125 C 411.050781 497.070312 412.644531 495.476562 414.617188 495.476562 C 416.582031 495.476562 418.179688 497.070312 418.179688 499.03125 L 418.179688 524.910156 C 418.179688 526.871094 416.582031 528.464844 414.617188 528.464844 C 412.644531 528.464844 411.050781 526.871094 411.050781 524.910156 Z M 411.050781 576.65625 L 411.050781 550.777344 C 411.050781 548.816406 412.644531 547.222656 414.617188 547.222656 C 416.582031 547.222656 418.179688 548.816406 418.179688 550.777344 L 418.179688 576.65625 C 418.179688 578.617188 416.582031 580.210938 414.617188 580.210938 C 412.644531 580.210938 411.050781 578.617188 411.050781 576.65625 Z M 411.050781 628.394531 L 411.050781 602.523438 C 411.050781 600.558594 412.644531 598.96875 414.617188 598.96875 C 416.582031 598.96875 418.179688 600.558594 418.179688 602.523438 L 418.179688 628.394531 C 418.179688 630.363281 416.582031 631.957031 414.617188 631.957031 C 412.644531 631.957031 411.050781 630.363281 411.050781 628.394531 Z M 411.050781 680.140625 L 411.050781 654.269531 C 411.050781 652.304688 412.644531 650.714844 414.617188 650.714844 C 416.582031 650.714844 418.179688 652.304688 418.179688 654.269531 L 418.179688 680.140625 C 418.179688 682.109375 416.582031 683.699219 414.617188 683.699219 C 412.644531 683.699219 411.050781 682.109375 411.050781 680.140625 Z M 411.050781 730.132812 L 411.050781 706.011719 C 411.050781 704.050781 412.644531 702.460938 414.617188 702.460938 C 416.582031 702.460938 418.179688 704.050781 418.179688 706.011719 L 418.179688 730.132812 C 418.179688 732.09375 416.582031 733.6875 414.617188 733.6875 C 412.644531 733.6875 411.050781 732.09375 411.050781 730.132812 " fill-opacity="1" fill-rule="nonzero"/></g><g clip-path="url(#c0941da81d)"><path fill="#ffff00" d="M 417.273438 365.269531 C 395.855469 365.269531 378.441406 382.683594 378.441406 404.097656 C 378.441406 431.015625 413.492188 466.375 414.980469 467.871094 C 415.613281 468.5 416.445312 468.816406 417.273438 468.816406 C 418.101562 468.816406 418.929688 468.5 419.5625 467.871094 C 421.050781 466.375 456.101562 431.015625 456.101562 404.097656 C 456.101562 382.683594 438.6875 365.269531 417.273438 365.269531 Z M 417.273438 365.269531 " fill-opacity="1" fill-rule="nonzero"/></g><path fill="#fafafa" d="M 436.6875 404.097656 C 436.6875 404.734375 436.65625 405.371094 436.59375 406.003906 C 436.53125 406.636719 436.4375 407.261719 436.3125 407.886719 C 436.191406 408.511719 436.035156 409.125 435.851562 409.734375 C 435.667969 410.34375 435.453125 410.941406 435.210938 411.527344 C 434.964844 412.117188 434.695312 412.691406 434.394531 413.25 C 434.09375 413.8125 433.769531 414.355469 433.414062 414.886719 C 433.0625 415.414062 432.683594 415.925781 432.28125 416.414062 C 431.875 416.90625 431.449219 417.378906 431 417.828125 C 430.550781 418.277344 430.082031 418.703125 429.589844 419.105469 C 429.097656 419.511719 428.585938 419.890625 428.058594 420.242188 C 427.53125 420.59375 426.984375 420.921875 426.425781 421.222656 C 425.863281 421.519531 425.289062 421.792969 424.703125 422.035156 C 424.113281 422.28125 423.515625 422.492188 422.90625 422.679688 C 422.300781 422.863281 421.683594 423.015625 421.058594 423.140625 C 420.4375 423.265625 419.808594 423.359375 419.175781 423.421875 C 418.542969 423.484375 417.90625 423.515625 417.273438 423.515625 C 416.636719 423.515625 416 423.484375 415.367188 423.421875 C 414.734375 423.359375 414.109375 423.265625 413.484375 423.140625 C 412.859375 423.015625 412.246094 422.863281 411.636719 422.679688 C 411.027344 422.492188 410.429688 422.28125 409.84375 422.035156 C 409.253906 421.792969 408.679688 421.519531 408.121094 421.222656 C 407.558594 420.921875 407.015625 420.59375 406.484375 420.242188 C 405.957031 419.890625 405.445312 419.511719 404.957031 419.105469 C 404.464844 418.703125 403.992188 418.277344 403.542969 417.828125 C 403.09375 417.378906 402.667969 416.90625 402.265625 416.414062 C 401.859375 415.925781 401.480469 415.414062 401.128906 414.886719 C 400.777344 414.355469 400.449219 413.8125 400.148438 413.25 C 399.847656 412.691406 399.578125 412.117188 399.335938 411.527344 C 399.089844 410.941406 398.878906 410.34375 398.691406 409.734375 C 398.507812 409.125 398.355469 408.511719 398.230469 407.886719 C 398.105469 407.261719 398.011719 406.636719 397.949219 406.003906 C 397.886719 405.371094 397.855469 404.734375 397.855469 404.097656 C 397.855469 403.464844 397.886719 402.828125 397.949219 402.195312 C 398.011719 401.5625 398.105469 400.933594 398.230469 400.3125 C 398.355469 399.6875 398.507812 399.070312 398.691406 398.464844 C 398.878906 397.855469 399.089844 397.257812 399.335938 396.667969 C 399.578125 396.082031 399.847656 395.507812 400.148438 394.945312 C 400.449219 394.386719 400.777344 393.839844 401.128906 393.3125 C 401.480469 392.785156 401.859375 392.273438 402.265625 391.78125 C 402.667969 391.289062 403.09375 390.820312 403.542969 390.371094 C 403.992188 389.921875 404.464844 389.496094 404.957031 389.089844 C 405.445312 388.6875 405.957031 388.308594 406.484375 387.957031 C 407.015625 387.601562 407.558594 387.277344 408.121094 386.976562 C 408.679688 386.675781 409.253906 386.40625 409.84375 386.160156 C 410.429688 385.917969 411.027344 385.703125 411.636719 385.519531 C 412.246094 385.335938 412.859375 385.179688 413.484375 385.058594 C 414.109375 384.933594 414.734375 384.839844 415.367188 384.777344 C 416 384.714844 416.636719 384.683594 417.273438 384.683594 C 417.90625 384.683594 418.542969 384.714844 419.175781 384.777344 C 419.808594 384.839844 420.4375 384.933594 421.058594 385.058594 C 421.683594 385.179688 422.300781 385.335938 422.90625 385.519531 C 423.515625 385.703125 424.113281 385.917969 424.703125 386.160156 C 425.289062 386.40625 425.863281 386.675781 426.425781 386.976562 C 426.984375 387.277344 427.53125 387.601562 428.058594 387.957031 C 428.585938 388.308594 429.097656 388.6875 429.589844 389.089844 C 430.082031 389.496094 430.550781 389.921875 431 390.371094 C 431.449219 390.820312 431.875 391.289062 432.28125 391.78125 C 432.683594 392.273438 433.0625 392.785156 433.414062 393.3125 C 433.769531 393.839844 434.09375 394.386719 434.394531 394.945312 C 434.695312 395.507812 434.964844 396.082031 435.210938 396.667969 C 435.453125 397.257812 435.667969 397.855469 435.851562 398.464844 C 436.035156 399.070312 436.191406 399.6875 436.3125 400.3125 C 436.4375 400.933594 436.53125 401.5625 436.59375 402.195312 C 436.65625 402.828125 436.6875 403.464844 436.6875 404.097656 Z M 436.6875 404.097656 " fill-opacity="1" fill-rule="nonzero"/></svg>