<svg xmlns="http://www.w3.org/2000/svg" xmlns:xlink="http://www.w3.org/1999/xlink" width="1080" zoomAndPan="magnify" viewBox="0 0 810 809.999993" height="1080" preserveAspectRatio="xMidYMid meet" version="1.0"><defs><g/><radialGradient gradientTransform="matrix(1, 0, 0, 1, 0.0000035, 0.00002)" gradientUnits="userSpaceOnUse" r="572.756238" cx="404.999997" id="820d4a7cb9" cy="404.999997" fx="404.999997" fy="404.999997"><stop stop-opacity="1" stop-color="rgb(36.474609%, 87.510681%, 90.188599%)" offset="0"/><stop stop-opacity="1" stop-color="rgb(36.425781%, 86.935425%, 90.167236%)" offset="0.00390625"/><stop stop-opacity="1" stop-color="rgb(36.375427%, 86.358643%, 90.145874%)" offset="0.0078125"/><stop stop-opacity="1" stop-color="rgb(36.326599%, 85.783386%, 90.126038%)" offset="0.0117188"/><stop stop-opacity="1" stop-color="rgb(36.277771%, 85.20813%, 90.104675%)" offset="0.015625"/><stop stop-opacity="1" stop-color="rgb(36.228943%, 84.631348%, 90.083313%)" offset="0.0195312"/><stop stop-opacity="1" stop-color="rgb(36.178589%, 84.056091%, 90.061951%)" offset="0.0234375"/><stop stop-opacity="1" stop-color="rgb(36.129761%, 83.480835%, 90.040588%)" offset="0.0273438"/><stop stop-opacity="1" stop-color="rgb(36.080933%, 82.904053%, 90.019226%)" offset="0.03125"/><stop stop-opacity="1" stop-color="rgb(36.032104%, 82.328796%, 89.99939%)" offset="0.0351562"/><stop stop-opacity="1" stop-color="rgb(35.98175%, 81.75354%, 89.978027%)" offset="0.0390625"/><stop stop-opacity="1" stop-color="rgb(35.932922%, 81.176758%, 89.956665%)" offset="0.0429688"/><stop stop-opacity="1" stop-color="rgb(35.884094%, 80.601501%, 89.935303%)" offset="0.046875"/><stop stop-opacity="1" stop-color="rgb(35.835266%, 80.026245%, 89.91394%)" offset="0.0507812"/><stop stop-opacity="1" stop-color="rgb(35.784912%, 79.449463%, 89.892578%)" offset="0.0546875"/><stop stop-opacity="1" stop-color="rgb(35.736084%, 78.874207%, 89.872742%)" offset="0.0585938"/><stop stop-opacity="1" stop-color="rgb(35.687256%, 78.29895%, 89.851379%)" offset="0.0625"/><stop stop-opacity="1" stop-color="rgb(35.638428%, 77.722168%, 89.830017%)" offset="0.0664062"/><stop stop-opacity="1" stop-color="rgb(35.588074%, 77.146912%, 89.808655%)" offset="0.0703125"/><stop stop-opacity="1" stop-color="rgb(35.539246%, 76.571655%, 89.787292%)" offset="0.0742188"/><stop stop-opacity="1" stop-color="rgb(35.490417%, 75.994873%, 89.76593%)" offset="0.078125"/><stop stop-opacity="1" stop-color="rgb(35.441589%, 75.419617%, 89.746094%)" offset="0.0820312"/><stop stop-opacity="1" stop-color="rgb(35.391235%, 74.84436%, 89.724731%)" offset="0.0859375"/><stop stop-opacity="1" stop-color="rgb(35.342407%, 74.267578%, 89.703369%)" offset="0.0898438"/><stop stop-opacity="1" stop-color="rgb(35.293579%, 73.692322%, 89.682007%)" offset="0.09375"/><stop stop-opacity="1" stop-color="rgb(35.243225%, 73.117065%, 89.660645%)" offset="0.0976562"/><stop stop-opacity="1" stop-color="rgb(35.194397%, 72.540283%, 89.640808%)" offset="0.101562"/><stop stop-opacity="1" stop-color="rgb(35.145569%, 71.965027%, 89.619446%)" offset="0.105469"/><stop stop-opacity="1" stop-color="rgb(35.096741%, 71.388245%, 89.598083%)" offset="0.109375"/><stop stop-opacity="1" stop-color="rgb(35.046387%, 70.812988%, 89.576721%)" offset="0.113281"/><stop stop-opacity="1" stop-color="rgb(34.997559%, 70.237732%, 89.555359%)" offset="0.117188"/><stop stop-opacity="1" stop-color="rgb(34.94873%, 69.66095%, 89.533997%)" offset="0.121094"/><stop stop-opacity="1" stop-color="rgb(34.899902%, 69.085693%, 89.51416%)" offset="0.125"/><stop stop-opacity="1" stop-color="rgb(34.849548%, 68.510437%, 89.492798%)" offset="0.128906"/><stop stop-opacity="1" stop-color="rgb(34.80072%, 67.933655%, 89.471436%)" offset="0.132812"/><stop stop-opacity="1" stop-color="rgb(34.751892%, 67.358398%, 89.450073%)" offset="0.136719"/><stop stop-opacity="1" stop-color="rgb(34.703064%, 66.783142%, 89.428711%)" offset="0.140625"/><stop stop-opacity="1" stop-color="rgb(34.65271%, 66.20636%, 89.407349%)" offset="0.144531"/><stop stop-opacity="1" stop-color="rgb(34.603882%, 65.631104%, 89.387512%)" offset="0.148438"/><stop stop-opacity="1" stop-color="rgb(34.555054%, 65.055847%, 89.36615%)" offset="0.152344"/><stop stop-opacity="1" stop-color="rgb(34.506226%, 64.479065%, 89.344788%)" offset="0.15625"/><stop stop-opacity="1" stop-color="rgb(34.455872%, 63.903809%, 89.323425%)" offset="0.160156"/><stop stop-opacity="1" stop-color="rgb(34.407043%, 63.328552%, 89.302063%)" offset="0.164062"/><stop stop-opacity="1" stop-color="rgb(34.358215%, 62.75177%, 89.282227%)" offset="0.167969"/><stop stop-opacity="1" stop-color="rgb(34.309387%, 62.176514%, 89.260864%)" offset="0.171875"/><stop stop-opacity="1" stop-color="rgb(34.259033%, 61.601257%, 89.239502%)" offset="0.175781"/><stop stop-opacity="1" stop-color="rgb(34.210205%, 61.024475%, 89.21814%)" offset="0.179688"/><stop stop-opacity="1" stop-color="rgb(34.161377%, 60.449219%, 89.196777%)" offset="0.183594"/><stop stop-opacity="1" stop-color="rgb(34.112549%, 59.873962%, 89.175415%)" offset="0.1875"/><stop stop-opacity="1" stop-color="rgb(34.062195%, 59.29718%, 89.155579%)" offset="0.191406"/><stop stop-opacity="1" stop-color="rgb(34.013367%, 58.721924%, 89.134216%)" offset="0.195312"/><stop stop-opacity="1" stop-color="rgb(33.964539%, 58.146667%, 89.112854%)" offset="0.199219"/><stop stop-opacity="1" stop-color="rgb(33.91571%, 57.569885%, 89.091492%)" offset="0.203125"/><stop stop-opacity="1" stop-color="rgb(33.865356%, 56.994629%, 89.070129%)" offset="0.207031"/><stop stop-opacity="1" stop-color="rgb(33.816528%, 56.419373%, 89.048767%)" offset="0.210938"/><stop stop-opacity="1" stop-color="rgb(33.7677%, 55.84259%, 89.028931%)" offset="0.214844"/><stop stop-opacity="1" stop-color="rgb(33.718872%, 55.267334%, 89.007568%)" offset="0.21875"/><stop stop-opacity="1" stop-color="rgb(33.668518%, 54.692078%, 88.986206%)" offset="0.222656"/><stop stop-opacity="1" stop-color="rgb(33.61969%, 54.115295%, 88.964844%)" offset="0.226562"/><stop stop-opacity="1" stop-color="rgb(33.570862%, 53.540039%, 88.943481%)" offset="0.230469"/><stop stop-opacity="1" stop-color="rgb(33.522034%, 52.963257%, 88.923645%)" offset="0.234375"/><stop stop-opacity="1" stop-color="rgb(33.47168%, 52.388%, 88.902283%)" offset="0.238281"/><stop stop-opacity="1" stop-color="rgb(33.422852%, 51.812744%, 88.88092%)" offset="0.242188"/><stop stop-opacity="1" stop-color="rgb(33.374023%, 51.235962%, 88.859558%)" offset="0.246094"/><stop stop-opacity="1" stop-color="rgb(33.325195%, 50.660706%, 88.838196%)" offset="0.25"/><stop stop-opacity="1" stop-color="rgb(33.274841%, 50.085449%, 88.816833%)" offset="0.253906"/><stop stop-opacity="1" stop-color="rgb(33.226013%, 49.508667%, 88.796997%)" offset="0.257812"/><stop stop-opacity="1" stop-color="rgb(33.177185%, 48.933411%, 88.775635%)" offset="0.261719"/><stop stop-opacity="1" stop-color="rgb(33.126831%, 48.358154%, 88.754272%)" offset="0.265625"/><stop stop-opacity="1" stop-color="rgb(33.078003%, 47.781372%, 88.73291%)" offset="0.269531"/><stop stop-opacity="1" stop-color="rgb(33.029175%, 47.206116%, 88.711548%)" offset="0.273438"/><stop stop-opacity="1" stop-color="rgb(32.980347%, 46.630859%, 88.690186%)" offset="0.277344"/><stop stop-opacity="1" stop-color="rgb(32.929993%, 46.054077%, 88.670349%)" offset="0.28125"/><stop stop-opacity="1" stop-color="rgb(32.881165%, 45.478821%, 88.648987%)" offset="0.285156"/><stop stop-opacity="1" stop-color="rgb(32.832336%, 44.903564%, 88.627625%)" offset="0.289062"/><stop stop-opacity="1" stop-color="rgb(32.783508%, 44.326782%, 88.606262%)" offset="0.292969"/><stop stop-opacity="1" stop-color="rgb(32.733154%, 43.751526%, 88.5849%)" offset="0.296875"/><stop stop-opacity="1" stop-color="rgb(32.684326%, 43.17627%, 88.565063%)" offset="0.300781"/><stop stop-opacity="1" stop-color="rgb(32.635498%, 42.599487%, 88.543701%)" offset="0.304688"/><stop stop-opacity="1" stop-color="rgb(32.58667%, 42.024231%, 88.522339%)" offset="0.308594"/><stop stop-opacity="1" stop-color="rgb(32.536316%, 41.448975%, 88.500977%)" offset="0.3125"/><stop stop-opacity="1" stop-color="rgb(32.487488%, 40.872192%, 88.479614%)" offset="0.316406"/><stop stop-opacity="1" stop-color="rgb(32.43866%, 40.296936%, 88.458252%)" offset="0.320312"/><stop stop-opacity="1" stop-color="rgb(32.389832%, 39.72168%, 88.438416%)" offset="0.324219"/><stop stop-opacity="1" stop-color="rgb(32.339478%, 39.144897%, 88.417053%)" offset="0.328125"/><stop stop-opacity="1" stop-color="rgb(32.290649%, 38.569641%, 88.395691%)" offset="0.332031"/><stop stop-opacity="1" stop-color="rgb(32.241821%, 37.994385%, 88.374329%)" offset="0.335938"/><stop stop-opacity="1" stop-color="rgb(32.192993%, 37.417603%, 88.352966%)" offset="0.339844"/><stop stop-opacity="1" stop-color="rgb(32.142639%, 36.842346%, 88.331604%)" offset="0.34375"/><stop stop-opacity="1" stop-color="rgb(32.093811%, 36.265564%, 88.311768%)" offset="0.347656"/><stop stop-opacity="1" stop-color="rgb(32.044983%, 35.690308%, 88.290405%)" offset="0.351562"/><stop stop-opacity="1" stop-color="rgb(31.996155%, 35.115051%, 88.269043%)" offset="0.355469"/><stop stop-opacity="1" stop-color="rgb(31.945801%, 34.538269%, 88.247681%)" offset="0.359375"/><stop stop-opacity="1" stop-color="rgb(31.896973%, 33.963013%, 88.226318%)" offset="0.363281"/><stop stop-opacity="1" stop-color="rgb(31.848145%, 33.387756%, 88.206482%)" offset="0.367188"/><stop stop-opacity="1" stop-color="rgb(31.799316%, 32.810974%, 88.18512%)" offset="0.371094"/><stop stop-opacity="1" stop-color="rgb(31.748962%, 32.235718%, 88.163757%)" offset="0.375"/><stop stop-opacity="1" stop-color="rgb(31.700134%, 31.660461%, 88.142395%)" offset="0.378906"/><stop stop-opacity="1" stop-color="rgb(31.651306%, 31.083679%, 88.121033%)" offset="0.382812"/><stop stop-opacity="1" stop-color="rgb(31.602478%, 30.508423%, 88.09967%)" offset="0.386719"/><stop stop-opacity="1" stop-color="rgb(31.552124%, 29.933167%, 88.079834%)" offset="0.390625"/><stop stop-opacity="1" stop-color="rgb(31.503296%, 29.356384%, 88.058472%)" offset="0.394531"/><stop stop-opacity="1" stop-color="rgb(31.454468%, 28.781128%, 88.037109%)" offset="0.398438"/><stop stop-opacity="1" stop-color="rgb(31.40564%, 28.205872%, 88.015747%)" offset="0.402344"/><stop stop-opacity="1" stop-color="rgb(31.355286%, 27.629089%, 87.994385%)" offset="0.40625"/><stop stop-opacity="1" stop-color="rgb(31.306458%, 27.053833%, 87.973022%)" offset="0.410156"/><stop stop-opacity="1" stop-color="rgb(31.257629%, 26.478577%, 87.953186%)" offset="0.414062"/><stop stop-opacity="1" stop-color="rgb(31.207275%, 25.901794%, 87.931824%)" offset="0.417969"/><stop stop-opacity="1" stop-color="rgb(31.158447%, 25.326538%, 87.910461%)" offset="0.421875"/><stop stop-opacity="1" stop-color="rgb(31.109619%, 24.751282%, 87.889099%)" offset="0.425781"/><stop stop-opacity="1" stop-color="rgb(31.060791%, 24.1745%, 87.867737%)" offset="0.429688"/><stop stop-opacity="1" stop-color="rgb(31.010437%, 23.599243%, 87.8479%)" offset="0.433594"/><stop stop-opacity="1" stop-color="rgb(30.961609%, 23.023987%, 87.826538%)" offset="0.4375"/><stop stop-opacity="1" stop-color="rgb(30.912781%, 22.447205%, 87.805176%)" offset="0.441406"/><stop stop-opacity="1" stop-color="rgb(30.863953%, 21.871948%, 87.783813%)" offset="0.445312"/><stop stop-opacity="1" stop-color="rgb(30.813599%, 21.296692%, 87.762451%)" offset="0.449219"/><stop stop-opacity="1" stop-color="rgb(30.764771%, 20.71991%, 87.741089%)" offset="0.453125"/><stop stop-opacity="1" stop-color="rgb(30.715942%, 20.144653%, 87.721252%)" offset="0.457031"/><stop stop-opacity="1" stop-color="rgb(30.667114%, 19.569397%, 87.69989%)" offset="0.460938"/><stop stop-opacity="1" stop-color="rgb(30.61676%, 18.992615%, 87.678528%)" offset="0.464844"/><stop stop-opacity="1" stop-color="rgb(30.567932%, 18.417358%, 87.657166%)" offset="0.46875"/><stop stop-opacity="1" stop-color="rgb(30.519104%, 17.840576%, 87.635803%)" offset="0.472656"/><stop stop-opacity="1" stop-color="rgb(30.470276%, 17.26532%, 87.614441%)" offset="0.476562"/><stop stop-opacity="1" stop-color="rgb(30.419922%, 16.690063%, 87.594604%)" offset="0.480469"/><stop stop-opacity="1" stop-color="rgb(30.371094%, 16.113281%, 87.573242%)" offset="0.484375"/><stop stop-opacity="1" stop-color="rgb(30.322266%, 15.538025%, 87.55188%)" offset="0.488281"/><stop stop-opacity="1" stop-color="rgb(30.273438%, 14.962769%, 87.530518%)" offset="0.492188"/><stop stop-opacity="1" stop-color="rgb(30.223083%, 14.385986%, 87.509155%)" offset="0.496094"/><stop stop-opacity="1" stop-color="rgb(30.081177%, 14.157104%, 87.42218%)" offset="0.5"/><stop stop-opacity="1" stop-color="rgb(29.844666%, 14.273071%, 87.268066%)" offset="0.503906"/><stop stop-opacity="1" stop-color="rgb(29.60968%, 14.390564%, 87.113953%)" offset="0.507812"/><stop stop-opacity="1" stop-color="rgb(29.373169%, 14.506531%, 86.959839%)" offset="0.511719"/><stop stop-opacity="1" stop-color="rgb(29.136658%, 14.622498%, 86.805725%)" offset="0.515625"/><stop stop-opacity="1" stop-color="rgb(28.901672%, 14.73999%, 86.651611%)" offset="0.519531"/><stop stop-opacity="1" stop-color="rgb(28.665161%, 14.855957%, 86.497498%)" offset="0.523438"/><stop stop-opacity="1" stop-color="rgb(28.42865%, 14.971924%, 86.34491%)" offset="0.527344"/><stop stop-opacity="1" stop-color="rgb(28.193665%, 15.087891%, 86.190796%)" offset="0.53125"/><stop stop-opacity="1" stop-color="rgb(27.957153%, 15.205383%, 86.036682%)" offset="0.535156"/><stop stop-opacity="1" stop-color="rgb(27.722168%, 15.32135%, 85.882568%)" offset="0.539062"/><stop stop-opacity="1" stop-color="rgb(27.485657%, 15.437317%, 85.728455%)" offset="0.542969"/><stop stop-opacity="1" stop-color="rgb(27.249146%, 15.55481%, 85.574341%)" offset="0.546875"/><stop stop-opacity="1" stop-color="rgb(27.01416%, 15.670776%, 85.420227%)" offset="0.550781"/><stop stop-opacity="1" stop-color="rgb(26.777649%, 15.786743%, 85.267639%)" offset="0.554688"/><stop stop-opacity="1" stop-color="rgb(26.541138%, 15.90271%, 85.113525%)" offset="0.558594"/><stop stop-opacity="1" stop-color="rgb(26.306152%, 16.020203%, 84.959412%)" offset="0.5625"/><stop stop-opacity="1" stop-color="rgb(26.069641%, 16.136169%, 84.805298%)" offset="0.566406"/><stop stop-opacity="1" stop-color="rgb(25.834656%, 16.252136%, 84.651184%)" offset="0.570312"/><stop stop-opacity="1" stop-color="rgb(25.598145%, 16.369629%, 84.49707%)" offset="0.574219"/><stop stop-opacity="1" stop-color="rgb(25.361633%, 16.485596%, 84.342957%)" offset="0.578125"/><stop stop-opacity="1" stop-color="rgb(25.126648%, 16.601562%, 84.188843%)" offset="0.582031"/><stop stop-opacity="1" stop-color="rgb(24.890137%, 16.717529%, 84.036255%)" offset="0.585938"/><stop stop-opacity="1" stop-color="rgb(24.653625%, 16.835022%, 83.882141%)" offset="0.589844"/><stop stop-opacity="1" stop-color="rgb(24.41864%, 16.950989%, 83.728027%)" offset="0.59375"/><stop stop-opacity="1" stop-color="rgb(24.182129%, 17.066956%, 83.573914%)" offset="0.597656"/><stop stop-opacity="1" stop-color="rgb(23.947144%, 17.184448%, 83.4198%)" offset="0.601562"/><stop stop-opacity="1" stop-color="rgb(23.710632%, 17.300415%, 83.265686%)" offset="0.605469"/><stop stop-opacity="1" stop-color="rgb(23.474121%, 17.416382%, 83.111572%)" offset="0.609375"/><stop stop-opacity="1" stop-color="rgb(23.239136%, 17.532349%, 82.958984%)" offset="0.613281"/><stop stop-opacity="1" stop-color="rgb(23.002625%, 17.649841%, 82.804871%)" offset="0.617188"/><stop stop-opacity="1" stop-color="rgb(22.766113%, 17.765808%, 82.650757%)" offset="0.621094"/><stop stop-opacity="1" stop-color="rgb(22.531128%, 17.881775%, 82.496643%)" offset="0.625"/><stop stop-opacity="1" stop-color="rgb(22.294617%, 17.999268%, 82.342529%)" offset="0.628906"/><stop stop-opacity="1" stop-color="rgb(22.059631%, 18.115234%, 82.188416%)" offset="0.632812"/><stop stop-opacity="1" stop-color="rgb(21.82312%, 18.231201%, 82.034302%)" offset="0.636719"/><stop stop-opacity="1" stop-color="rgb(21.586609%, 18.347168%, 81.881714%)" offset="0.640625"/><stop stop-opacity="1" stop-color="rgb(21.351624%, 18.464661%, 81.7276%)" offset="0.644531"/><stop stop-opacity="1" stop-color="rgb(21.115112%, 18.580627%, 81.573486%)" offset="0.648438"/><stop stop-opacity="1" stop-color="rgb(20.878601%, 18.696594%, 81.419373%)" offset="0.652344"/><stop stop-opacity="1" stop-color="rgb(20.643616%, 18.814087%, 81.265259%)" offset="0.65625"/><stop stop-opacity="1" stop-color="rgb(20.407104%, 18.930054%, 81.111145%)" offset="0.660156"/><stop stop-opacity="1" stop-color="rgb(20.172119%, 19.046021%, 80.957031%)" offset="0.664062"/><stop stop-opacity="1" stop-color="rgb(19.935608%, 19.161987%, 80.802917%)" offset="0.667969"/><stop stop-opacity="1" stop-color="rgb(19.699097%, 19.27948%, 80.65033%)" offset="0.671875"/><stop stop-opacity="1" stop-color="rgb(19.464111%, 19.395447%, 80.496216%)" offset="0.675781"/><stop stop-opacity="1" stop-color="rgb(19.2276%, 19.511414%, 80.342102%)" offset="0.679688"/><stop stop-opacity="1" stop-color="rgb(18.991089%, 19.628906%, 80.187988%)" offset="0.683594"/><stop stop-opacity="1" stop-color="rgb(18.756104%, 19.744873%, 80.033875%)" offset="0.6875"/><stop stop-opacity="1" stop-color="rgb(18.519592%, 19.86084%, 79.879761%)" offset="0.691406"/><stop stop-opacity="1" stop-color="rgb(18.284607%, 19.976807%, 79.725647%)" offset="0.695312"/><stop stop-opacity="1" stop-color="rgb(18.048096%, 20.094299%, 79.573059%)" offset="0.699219"/><stop stop-opacity="1" stop-color="rgb(17.811584%, 20.210266%, 79.418945%)" offset="0.703125"/><stop stop-opacity="1" stop-color="rgb(17.576599%, 20.326233%, 79.264832%)" offset="0.707031"/><stop stop-opacity="1" stop-color="rgb(17.340088%, 20.443726%, 79.110718%)" offset="0.710938"/><stop stop-opacity="1" stop-color="rgb(17.103577%, 20.559692%, 78.956604%)" offset="0.714844"/><stop stop-opacity="1" stop-color="rgb(16.868591%, 20.675659%, 78.80249%)" offset="0.71875"/><stop stop-opacity="1" stop-color="rgb(16.63208%, 20.791626%, 78.648376%)" offset="0.722656"/><stop stop-opacity="1" stop-color="rgb(16.397095%, 20.909119%, 78.495789%)" offset="0.726562"/><stop stop-opacity="1" stop-color="rgb(16.160583%, 21.025085%, 78.341675%)" offset="0.730469"/><stop stop-opacity="1" stop-color="rgb(15.924072%, 21.141052%, 78.187561%)" offset="0.734375"/><stop stop-opacity="1" stop-color="rgb(15.689087%, 21.258545%, 78.033447%)" offset="0.738281"/><stop stop-opacity="1" stop-color="rgb(15.452576%, 21.374512%, 77.879333%)" offset="0.742188"/><stop stop-opacity="1" stop-color="rgb(15.216064%, 21.490479%, 77.72522%)" offset="0.746094"/><stop stop-opacity="1" stop-color="rgb(14.981079%, 21.607971%, 77.571106%)" offset="0.75"/><stop stop-opacity="1" stop-color="rgb(14.744568%, 21.723938%, 77.416992%)" offset="0.753906"/><stop stop-opacity="1" stop-color="rgb(14.509583%, 21.839905%, 77.264404%)" offset="0.757812"/><stop stop-opacity="1" stop-color="rgb(14.273071%, 21.955872%, 77.110291%)" offset="0.761719"/><stop stop-opacity="1" stop-color="rgb(14.03656%, 22.073364%, 76.956177%)" offset="0.765625"/><stop stop-opacity="1" stop-color="rgb(13.801575%, 22.189331%, 76.802063%)" offset="0.769531"/><stop stop-opacity="1" stop-color="rgb(13.565063%, 22.305298%, 76.647949%)" offset="0.773438"/><stop stop-opacity="1" stop-color="rgb(13.328552%, 22.422791%, 76.493835%)" offset="0.777344"/><stop stop-opacity="1" stop-color="rgb(13.093567%, 22.538757%, 76.339722%)" offset="0.78125"/><stop stop-opacity="1" stop-color="rgb(12.857056%, 22.654724%, 76.187134%)" offset="0.785156"/><stop stop-opacity="1" stop-color="rgb(12.62207%, 22.770691%, 76.03302%)" offset="0.789062"/><stop stop-opacity="1" stop-color="rgb(12.385559%, 22.888184%, 75.878906%)" offset="0.792969"/><stop stop-opacity="1" stop-color="rgb(12.149048%, 23.00415%, 75.724792%)" offset="0.796875"/><stop stop-opacity="1" stop-color="rgb(11.914062%, 23.120117%, 75.570679%)" offset="0.800781"/><stop stop-opacity="1" stop-color="rgb(11.677551%, 23.23761%, 75.416565%)" offset="0.804688"/><stop stop-opacity="1" stop-color="rgb(11.44104%, 23.353577%, 75.262451%)" offset="0.808594"/><stop stop-opacity="1" stop-color="rgb(11.206055%, 23.469543%, 75.109863%)" offset="0.8125"/><stop stop-opacity="1" stop-color="rgb(10.969543%, 23.58551%, 74.95575%)" offset="0.816406"/><stop stop-opacity="1" stop-color="rgb(10.734558%, 23.703003%, 74.801636%)" offset="0.820312"/><stop stop-opacity="1" stop-color="rgb(10.498047%, 23.81897%, 74.647522%)" offset="0.824219"/><stop stop-opacity="1" stop-color="rgb(10.261536%, 23.934937%, 74.493408%)" offset="0.828125"/><stop stop-opacity="1" stop-color="rgb(10.02655%, 24.052429%, 74.339294%)" offset="0.832031"/><stop stop-opacity="1" stop-color="rgb(9.790039%, 24.168396%, 74.185181%)" offset="0.835938"/><stop stop-opacity="1" stop-color="rgb(9.553528%, 24.284363%, 74.031067%)" offset="0.839844"/><stop stop-opacity="1" stop-color="rgb(9.318542%, 24.40033%, 73.878479%)" offset="0.84375"/><stop stop-opacity="1" stop-color="rgb(9.082031%, 24.517822%, 73.724365%)" offset="0.847656"/><stop stop-opacity="1" stop-color="rgb(8.847046%, 24.633789%, 73.570251%)" offset="0.851562"/><stop stop-opacity="1" stop-color="rgb(8.610535%, 24.749756%, 73.416138%)" offset="0.855469"/><stop stop-opacity="1" stop-color="rgb(8.374023%, 24.867249%, 73.262024%)" offset="0.859375"/><stop stop-opacity="1" stop-color="rgb(8.139038%, 24.983215%, 73.10791%)" offset="0.863281"/><stop stop-opacity="1" stop-color="rgb(7.902527%, 25.099182%, 72.953796%)" offset="0.867188"/><stop stop-opacity="1" stop-color="rgb(7.666016%, 25.215149%, 72.801208%)" offset="0.871094"/><stop stop-opacity="1" stop-color="rgb(7.43103%, 25.332642%, 72.647095%)" offset="0.875"/><stop stop-opacity="1" stop-color="rgb(7.194519%, 25.448608%, 72.492981%)" offset="0.878906"/><stop stop-opacity="1" stop-color="rgb(6.959534%, 25.564575%, 72.338867%)" offset="0.882812"/><stop stop-opacity="1" stop-color="rgb(6.723022%, 25.682068%, 72.184753%)" offset="0.886719"/><stop stop-opacity="1" stop-color="rgb(6.486511%, 25.798035%, 72.03064%)" offset="0.890625"/><stop stop-opacity="1" stop-color="rgb(6.251526%, 25.914001%, 71.876526%)" offset="0.894531"/><stop stop-opacity="1" stop-color="rgb(6.015015%, 26.029968%, 71.723938%)" offset="0.898438"/><stop stop-opacity="1" stop-color="rgb(5.778503%, 26.147461%, 71.569824%)" offset="0.902344"/><stop stop-opacity="1" stop-color="rgb(5.543518%, 26.263428%, 71.41571%)" offset="0.90625"/><stop stop-opacity="1" stop-color="rgb(5.307007%, 26.379395%, 71.261597%)" offset="0.910156"/><stop stop-opacity="1" stop-color="rgb(5.072021%, 26.496887%, 71.107483%)" offset="0.914062"/><stop stop-opacity="1" stop-color="rgb(4.83551%, 26.612854%, 70.953369%)" offset="0.917969"/><stop stop-opacity="1" stop-color="rgb(4.598999%, 26.728821%, 70.799255%)" offset="0.921875"/><stop stop-opacity="1" stop-color="rgb(4.364014%, 26.844788%, 70.645142%)" offset="0.925781"/><stop stop-opacity="1" stop-color="rgb(4.127502%, 26.96228%, 70.492554%)" offset="0.929688"/><stop stop-opacity="1" stop-color="rgb(3.890991%, 27.078247%, 70.33844%)" offset="0.933594"/><stop stop-opacity="1" stop-color="rgb(3.656006%, 27.194214%, 70.184326%)" offset="0.9375"/><stop stop-opacity="1" stop-color="rgb(3.419495%, 27.311707%, 70.030212%)" offset="0.941406"/><stop stop-opacity="1" stop-color="rgb(3.184509%, 27.427673%, 69.876099%)" offset="0.945312"/><stop stop-opacity="1" stop-color="rgb(2.947998%, 27.54364%, 69.721985%)" offset="0.949219"/><stop stop-opacity="1" stop-color="rgb(2.711487%, 27.659607%, 69.567871%)" offset="0.953125"/><stop stop-opacity="1" stop-color="rgb(2.476501%, 27.7771%, 69.415283%)" offset="0.957031"/><stop stop-opacity="1" stop-color="rgb(2.23999%, 27.893066%, 69.261169%)" offset="0.960938"/><stop stop-opacity="1" stop-color="rgb(2.003479%, 28.009033%, 69.107056%)" offset="0.964844"/><stop stop-opacity="1" stop-color="rgb(1.768494%, 28.126526%, 68.952942%)" offset="0.96875"/><stop stop-opacity="1" stop-color="rgb(1.531982%, 28.242493%, 68.798828%)" offset="0.972656"/><stop stop-opacity="1" stop-color="rgb(1.296997%, 28.358459%, 68.644714%)" offset="0.976562"/><stop stop-opacity="1" stop-color="rgb(1.060486%, 28.475952%, 68.490601%)" offset="0.980469"/><stop stop-opacity="1" stop-color="rgb(0.823975%, 28.591919%, 68.338013%)" offset="0.984375"/><stop stop-opacity="1" stop-color="rgb(0.588989%, 28.707886%, 68.183899%)" offset="0.988281"/><stop stop-opacity="1" stop-color="rgb(0.352478%, 28.823853%, 68.029785%)" offset="0.992188"/><stop stop-opacity="1" stop-color="rgb(0.117493%, 28.941345%, 67.875671%)" offset="0.996094"/><stop stop-opacity="1" stop-color="rgb(0%, 28.999329%, 67.799377%)" offset="1"/></radialGradient><clipPath id="4460b7c79f"><path d="M 230.113281 228 L 641 228 L 641 630.910156 L 230.113281 630.910156 Z M 230.113281 228 " clip-rule="nonzero"/></clipPath><clipPath id="01a1954fbf"><path d="M 230.113281 228 L 575 228 L 575 556 L 230.113281 556 Z M 230.113281 228 " clip-rule="nonzero"/></clipPath><clipPath id="a15c4ddbd1"><path d="M 335 230 L 635 230 L 635 630.910156 L 335 630.910156 Z M 335 230 " clip-rule="nonzero"/></clipPath><clipPath id="bc3d8f04bf"><path d="M 297.382812 662 L 574 662 L 574 771 L 297.382812 771 Z M 297.382812 662 " clip-rule="nonzero"/></clipPath><clipPath id="bb36e7b5f7"><path d="M 300 654.371094 L 572 654.371094 L 572 757 L 300 757 Z M 300 654.371094 " clip-rule="nonzero"/></clipPath></defs><rect x="-81" width="972" fill="#ffffff" y="-80.999999" height="971.999992" fill-opacity="1"/><rect x="-81" fill="url(#820d4a7cb9)" width="972" y="-80.999999" height="971.999992"/><g clip-path="url(#4460b7c79f)"><path fill="#7b95f9" d="M 638.847656 417.796875 C 636.578125 412.535156 620.402344 381.675781 613.601562 377.28125 C 606.800781 372.886719 593.984375 371.589844 593.984375 371.589844 L 594.40625 364.277344 C 597.847656 364.089844 600.589844 361.289062 600.675781 357.820312 C 601.414062 358.105469 602.210938 358.265625 603.050781 358.265625 C 606.71875 358.265625 609.691406 355.292969 609.691406 351.625 C 609.691406 349.078125 608.253906 346.867188 606.148438 345.753906 C 608.417969 344.699219 609.996094 342.402344 609.996094 339.734375 C 609.996094 336.066406 607.023438 333.09375 603.355469 333.09375 C 602.792969 333.09375 602.25 333.171875 601.730469 333.304688 C 601.984375 332.597656 602.128906 331.84375 602.128906 331.046875 C 602.128906 327.382812 599.15625 324.40625 595.488281 324.40625 C 592.878906 324.40625 590.628906 325.914062 589.542969 328.101562 C 588.789062 325.265625 586.210938 323.175781 583.136719 323.175781 C 579.46875 323.175781 576.496094 326.148438 576.496094 329.816406 C 576.496094 329.828125 576.496094 329.839844 576.496094 329.851562 C 575.59375 329.394531 574.578125 329.132812 573.496094 329.132812 C 569.828125 329.132812 566.855469 332.105469 566.855469 335.773438 C 566.855469 338.421875 568.410156 340.699219 570.652344 341.765625 C 569.5 342.960938 568.785156 344.582031 568.785156 346.375 C 568.785156 347.148438 568.925781 347.886719 569.167969 348.574219 C 568.726562 348.816406 568.28125 349.039062 567.855469 349.230469 C 566.707031 349.75 566.554688 351.359375 567.359375 352.332031 L 568.4375 353.730469 C 569.042969 354.519531 569.292969 355.527344 569.125 356.507812 L 568.253906 361.625 C 567.976562 363.25 568.941406 364.828125 570.511719 365.328125 L 574.554688 366.386719 C 576.164062 366.808594 577.265625 368.289062 577.214844 369.953125 L 577.164062 371.589844 C 577.164062 371.589844 559.195312 374.277344 551.535156 379.457031 C 546.308594 382.984375 533.695312 393.269531 526.191406 399.457031 L 509.121094 383.070312 L 500.375 342.183594 C 510.058594 313.507812 503.921875 280.714844 482.238281 257.421875 L 476.035156 228.433594 L 230.222656 228.433594 L 300.242188 555.675781 L 546.054688 555.675781 L 519.421875 431.203125 C 520.382812 430.902344 521.351562 430.566406 522.324219 430.179688 L 556.285156 462.78125 C 556.492188 463.226562 556.785156 463.636719 557.160156 463.921875 C 557.363281 464.074219 557.605469 464.199219 557.875 464.308594 L 560.585938 466.914062 C 560.035156 476.421875 559.410156 489.15625 558.980469 503.867188 C 558.144531 532.796875 558.980469 611.65625 558.980469 611.65625 L 555.175781 617.394531 C 553.714844 619.59375 551.609375 621.292969 549.148438 622.25 L 539.128906 626.148438 C 538.195312 626.515625 537.578125 627.417969 537.578125 628.421875 C 537.578125 629.765625 538.667969 630.855469 540.015625 630.855469 L 560.695312 630.855469 C 563.816406 630.855469 566.847656 629.792969 569.292969 627.855469 C 569.554688 627.648438 569.746094 627.5 569.8125 627.457031 C 570.164062 627.222656 577.898438 625.347656 577.898438 625.347656 C 577.898438 625.347656 579.148438 619.953125 577.878906 611.867188 L 586.105469 504.90625 L 594.335938 611.867188 C 593.066406 619.953125 594.316406 625.347656 594.316406 625.347656 C 594.316406 625.347656 602.050781 627.222656 602.402344 627.457031 C 602.46875 627.5 602.65625 627.648438 602.921875 627.855469 C 605.363281 629.796875 608.398438 630.855469 611.515625 630.855469 L 632.199219 630.855469 C 633.546875 630.855469 634.636719 629.765625 634.636719 628.421875 C 634.636719 627.414062 634.019531 626.515625 633.082031 626.148438 L 623.066406 622.25 C 620.601562 621.289062 618.496094 619.59375 617.039062 617.394531 L 613.230469 611.65625 C 613.230469 611.65625 614.070312 532.796875 613.230469 503.867188 C 612.414062 475.785156 610.878906 454.878906 610.5 449.957031 C 618.640625 446.140625 628.078125 441.433594 635.164062 437.066406 C 641.023438 433.457031 640.949219 422.664062 638.847656 417.796875 Z M 558.128906 410.847656 L 560.183594 432.09375 L 545.601562 418.089844 C 549.597656 415.816406 553.957031 413.289062 558.128906 410.847656 Z M 558.128906 410.847656 " fill-opacity="1" fill-rule="nonzero"/></g><g clip-path="url(#01a1954fbf)"><path fill="#fbeeec" d="M 508.898438 431.59375 C 507.414062 430.945312 505.25 429.683594 502.753906 428.015625 L 506.695312 446.4375 L 406.136719 446.4375 L 395.296875 395.785156 C 391.925781 394.75 388.605469 393.5 385.355469 392.03125 L 396.996094 446.4375 L 296.4375 446.4375 L 281.5 376.613281 L 362.351562 376.613281 C 362.140625 376.414062 361.921875 376.230469 361.714844 376.027344 C 358.136719 372.59375 354.953125 368.910156 352.113281 365.042969 L 279.21875 365.042969 L 264.28125 295.21875 L 338.09375 295.21875 C 341.472656 281.089844 348.507812 267.648438 359.277344 256.429688 C 359.328125 256.378906 359.382812 256.328125 359.433594 256.277344 L 256.53125 256.277344 C 256.210938 256.277344 255.949219 256.015625 255.949219 255.691406 C 255.949219 255.371094 256.210938 255.109375 256.53125 255.109375 L 360.613281 255.109375 C 393.039062 222.785156 445.6875 222.128906 478.875 253.996094 C 480.039062 255.109375 481.152344 256.257812 482.238281 257.421875 L 476.035156 228.433594 L 230.222656 228.433594 L 300.242188 555.675781 L 546.054688 555.675781 L 519.421875 431.203125 C 515.535156 432.421875 511.800781 432.867188 508.898438 431.59375 Z M 314.628906 528.417969 L 299.691406 458.59375 L 400.246094 458.59375 L 415.1875 528.417969 Z M 424.328125 528.417969 L 409.386719 458.59375 L 509.945312 458.59375 L 524.882812 528.417969 Z M 509.125 383.074219 L 489.25 363.996094 C 494.089844 357.191406 497.792969 349.835938 500.375 342.1875 Z M 574.96875 336.992188 C 574.941406 337.039062 574.914062 337.085938 574.890625 337.132812 C 574.886719 337.128906 574.886719 337.125 574.886719 337.121094 C 574.910156 337.074219 574.941406 337.035156 574.96875 336.992188 Z M 376.597656 375.800781 C 376.277344 375.570312 375.964844 375.332031 375.648438 375.097656 L 445.015625 244.339844 C 445.386719 244.472656 445.757812 244.601562 446.128906 244.734375 Z M 422.683594 389.828125 L 483.59375 275.015625 C 483.832031 275.394531 484.074219 275.773438 484.304688 276.160156 L 424.035156 389.769531 C 423.585938 389.792969 423.132812 389.816406 422.683594 389.828125 Z M 429.445312 240.699219 C 429.855469 240.746094 430.261719 240.816406 430.671875 240.875 L 364.734375 365.167969 C 364.453125 364.859375 364.175781 364.554688 363.902344 364.242188 Z M 429.445312 240.699219 " fill-opacity="1" fill-rule="nonzero"/></g><g clip-path="url(#a15c4ddbd1)"><path fill="#fec045" d="M 577.878906 611.867188 C 579.148438 619.953125 577.898438 625.347656 577.898438 625.347656 C 577.898438 625.347656 570.160156 627.222656 569.808594 627.457031 C 569.742188 627.503906 569.554688 627.648438 569.292969 627.855469 C 566.847656 629.796875 563.816406 630.855469 560.695312 630.855469 L 540.011719 630.855469 C 538.667969 630.855469 537.574219 629.765625 537.574219 628.421875 C 537.574219 627.417969 538.191406 626.515625 539.128906 626.152344 L 549.148438 622.25 C 551.609375 621.292969 553.714844 619.59375 555.175781 617.394531 L 558.980469 611.65625 Z M 633.082031 626.152344 L 623.0625 622.25 C 620.601562 621.292969 618.496094 619.59375 617.035156 617.394531 L 613.230469 611.65625 L 594.332031 611.867188 C 593.0625 619.953125 594.3125 625.347656 594.3125 625.347656 C 594.3125 625.347656 602.050781 627.222656 602.402344 627.457031 C 602.46875 627.503906 602.65625 627.648438 602.917969 627.855469 C 605.363281 629.796875 608.394531 630.855469 611.515625 630.855469 L 632.199219 630.855469 C 633.542969 630.855469 634.632812 629.765625 634.632812 628.421875 C 634.632812 627.417969 634.015625 626.515625 633.082031 626.152344 Z M 556.285156 462.785156 L 522.324219 430.183594 L 490.582031 399.707031 L 492.210938 397.160156 C 493.640625 394.925781 493.4375 392.019531 491.714844 390.007812 L 486.675781 384.128906 C 485.285156 382.507812 482.8125 382.417969 481.308594 383.925781 L 477.804688 387.441406 L 472.046875 381.914062 C 449.929688 399.046875 421.109375 403.726562 395.300781 395.785156 C 391.925781 394.75 388.605469 393.5 385.355469 392.03125 C 377.09375 388.289062 369.308594 383.15625 362.355469 376.613281 C 362.140625 376.414062 361.921875 376.230469 361.714844 376.027344 C 358.136719 372.59375 354.953125 368.910156 352.113281 365.042969 C 337.140625 344.664062 332.417969 318.972656 338.097656 295.21875 C 341.472656 281.089844 348.507812 267.648438 359.277344 256.429688 C 359.328125 256.378906 359.382812 256.328125 359.433594 256.277344 C 359.820312 255.875 360.21875 255.5 360.613281 255.109375 C 393.039062 222.785156 445.6875 222.128906 478.875 253.996094 C 480.039062 255.109375 481.152344 256.257812 482.238281 257.421875 C 503.925781 280.71875 510.058594 313.511719 500.375 342.1875 C 497.792969 349.835938 494.089844 357.191406 489.253906 363.996094 L 509.125 383.074219 L 526.195312 399.460938 L 545.601562 418.089844 L 560.183594 432.09375 L 572.695312 444.105469 L 567.867188 445 C 566.328125 445.285156 564.976562 446.207031 564.15625 447.542969 L 556.144531 460.558594 C 555.835938 461.058594 555.910156 461.980469 556.285156 462.785156 Z M 484.308594 276.160156 C 484.074219 275.773438 483.832031 275.394531 483.59375 275.015625 C 480.421875 270.007812 476.617188 265.289062 472.152344 261 C 464.441406 253.601562 455.558594 248.195312 446.128906 244.734375 C 445.757812 244.601562 445.386719 244.472656 445.015625 244.339844 C 440.335938 242.707031 435.53125 241.550781 430.671875 240.875 C 430.261719 240.820312 429.855469 240.75 429.445312 240.699219 C 406.84375 237.933594 383.265625 245.472656 366.285156 263.160156 C 339.183594 291.386719 338.609375 335.335938 363.902344 364.242188 C 364.175781 364.554688 364.457031 364.863281 364.734375 365.171875 C 365.921875 366.484375 367.144531 367.777344 368.441406 369.023438 C 370.742188 371.230469 373.15625 373.242188 375.648438 375.097656 C 375.964844 375.332031 376.277344 375.570312 376.597656 375.800781 C 390.3125 385.683594 406.570312 390.34375 422.683594 389.828125 C 423.132812 389.816406 423.585938 389.792969 424.035156 389.769531 C 442.4375 388.851562 460.539062 381.203125 474.304688 366.863281 C 498.332031 341.839844 501.511719 304.460938 484.308594 276.160156 Z M 600.804688 496.011719 L 608.503906 487.992188 C 611.128906 485.261719 611.039062 480.917969 608.308594 478.292969 L 582.679688 453.6875 L 579.785156 455.308594 C 576.441406 457.179688 573.007812 458.28125 570.140625 457.585938 C 570.140625 457.585938 565.648438 462.195312 563.234375 463.46875 C 560.757812 464.777344 559.015625 464.777344 557.875 464.3125 L 560.585938 466.914062 L 584.984375 490.335938 L 591.105469 496.210938 C 593.835938 498.835938 598.179688 498.746094 600.804688 496.011719 Z M 600.804688 496.011719 " fill-opacity="1" fill-rule="nonzero"/></g><path fill="#4724e3" d="M 256.53125 255.109375 L 360.613281 255.109375 C 360.21875 255.5 359.820312 255.878906 359.433594 256.277344 L 256.53125 256.277344 C 256.210938 256.277344 255.949219 256.015625 255.949219 255.695312 C 255.949219 255.371094 256.210938 255.109375 256.53125 255.109375 Z M 570.652344 341.769531 C 569.5 342.960938 568.789062 344.585938 568.789062 346.375 C 568.789062 347.148438 568.925781 347.886719 569.167969 348.578125 C 570.832031 347.671875 572.449219 346.457031 572.6875 345.1875 C 572.96875 343.726562 573.214844 341.535156 573.988281 339.101562 C 574.199219 338.441406 574.515625 337.773438 574.890625 337.132812 C 574.886719 337.128906 574.886719 337.125 574.886719 337.121094 C 574.910156 337.078125 574.945312 337.035156 574.96875 336.992188 C 574.941406 337.039062 574.917969 337.085938 574.890625 337.132812 C 574.890625 337.132812 581.269531 343.058594 585.464844 342.757812 L 586.714844 350.4375 C 587.90625 349.589844 589.859375 348.648438 592.359375 349.070312 C 596.621094 349.792969 596.847656 354.089844 595.023438 356.410156 C 594.101562 357.582031 593.058594 358.304688 592.027344 358.753906 L 594.410156 364.273438 C 597.851562 364.085938 600.589844 361.289062 600.679688 357.820312 C 601.417969 358.105469 602.214844 358.265625 603.050781 358.265625 C 606.71875 358.265625 609.691406 355.292969 609.691406 351.625 C 609.691406 349.078125 608.257812 346.867188 606.148438 345.753906 C 608.421875 344.699219 610 342.402344 610 339.734375 C 610 336.066406 607.027344 333.09375 603.359375 333.09375 C 602.796875 333.09375 602.253906 333.171875 601.730469 333.300781 C 601.988281 332.597656 602.132812 331.839844 602.132812 331.046875 C 602.132812 327.378906 599.160156 324.40625 595.492188 324.40625 C 592.882812 324.40625 590.632812 325.914062 589.546875 328.101562 C 588.792969 325.265625 586.210938 323.171875 583.136719 323.171875 C 579.46875 323.171875 576.496094 326.144531 576.496094 329.8125 C 576.496094 329.828125 576.5 329.839844 576.5 329.851562 C 575.597656 329.394531 574.578125 329.128906 573.5 329.128906 C 569.832031 329.128906 566.859375 332.101562 566.859375 335.769531 C 566.855469 338.421875 568.410156 340.699219 570.652344 341.769531 Z M 492.847656 401.878906 L 489.578125 402.085938 C 488.234375 402.167969 486.917969 401.667969 485.976562 400.703125 L 478.703125 393.285156 C 477.933594 395.382812 477.445312 398.054688 477.765625 401.375 C 478.511719 409.105469 493.144531 421.609375 502.753906 428.015625 C 505.25 429.683594 507.414062 430.945312 508.898438 431.59375 C 511.800781 432.867188 515.535156 432.421875 519.421875 431.203125 C 520.382812 430.902344 521.351562 430.566406 522.324219 430.179688 L 490.582031 399.707031 Z M 638.847656 417.796875 C 636.578125 412.535156 620.402344 381.675781 613.601562 377.28125 C 606.800781 372.886719 593.984375 371.589844 593.984375 371.589844 L 577.167969 371.589844 C 577.167969 371.589844 559.195312 374.28125 551.535156 379.457031 C 546.308594 382.988281 533.695312 393.273438 526.191406 399.460938 L 545.597656 418.089844 C 549.597656 415.820312 553.957031 413.289062 558.128906 410.847656 L 560.183594 432.09375 L 572.695312 444.105469 L 582.851562 442.226562 L 588.324219 450.527344 L 588.671875 451.054688 C 591.234375 454.9375 596.222656 456.410156 600.476562 454.523438 C 603.3125 453.265625 606.769531 451.703125 610.496094 449.957031 C 618.636719 446.140625 628.074219 441.433594 635.164062 437.066406 C 641.023438 433.457031 640.949219 422.664062 638.847656 417.796875 Z M 638.847656 417.796875 " fill-opacity="1" fill-rule="nonzero"/><path fill="#f26b6d" d="M 592.023438 358.753906 L 594.410156 364.273438 L 594.410156 364.277344 L 593.984375 371.589844 L 577.167969 371.589844 L 577.21875 369.953125 C 577.269531 368.289062 576.164062 366.8125 574.554688 366.390625 L 570.511719 365.332031 C 568.941406 364.832031 567.980469 363.253906 568.257812 361.628906 L 569.128906 356.507812 C 569.292969 355.527344 569.042969 354.523438 568.4375 353.734375 L 567.363281 352.332031 C 566.558594 351.363281 566.707031 349.753906 567.859375 349.234375 C 568.28125 349.042969 568.726562 348.816406 569.171875 348.578125 C 570.832031 347.671875 572.449219 346.457031 572.691406 345.1875 C 572.96875 343.726562 573.214844 341.535156 573.988281 339.101562 C 574.199219 338.441406 574.515625 337.773438 574.890625 337.132812 C 574.890625 337.132812 581.269531 343.058594 585.464844 342.757812 L 586.714844 350.4375 C 587.90625 349.589844 589.859375 348.648438 592.359375 349.070312 C 596.621094 349.792969 596.847656 354.089844 595.023438 356.410156 C 594.101562 357.582031 593.054688 358.304688 592.023438 358.753906 Z M 572.695312 444.105469 L 567.867188 445 C 566.324219 445.285156 564.976562 446.207031 564.15625 447.542969 L 556.144531 460.558594 C 555.835938 461.058594 555.910156 461.980469 556.285156 462.785156 C 556.492188 463.226562 556.785156 463.636719 557.160156 463.921875 C 557.363281 464.074219 557.605469 464.199219 557.875 464.3125 C 559.015625 464.777344 560.757812 464.777344 563.234375 463.46875 C 565.648438 462.191406 570.140625 457.585938 570.140625 457.585938 C 573.007812 458.28125 576.441406 457.179688 579.785156 455.308594 L 582.679688 453.6875 L 588.324219 450.527344 L 582.851562 442.226562 Z M 491.714844 390.003906 L 486.675781 384.128906 C 485.285156 382.507812 482.8125 382.414062 481.308594 383.925781 L 477.804688 387.4375 L 477.417969 387.824219 C 476.28125 388.964844 476.273438 390.808594 477.402344 391.957031 L 478.703125 393.285156 L 485.976562 400.703125 C 486.917969 401.664062 488.234375 402.167969 489.578125 402.085938 L 492.847656 401.878906 L 490.582031 399.703125 L 492.210938 397.15625 C 493.640625 394.925781 493.4375 392.019531 491.714844 390.003906 Z M 491.714844 390.003906 " fill-opacity="1" fill-rule="nonzero"/><path fill="#0f61a5" d="M 520.199219 767.734375 L 351.3125 767.734375 C 323.15625 767.734375 300.117188 744.691406 300.117188 716.527344 C 300.117188 688.363281 323.15625 665.320312 351.3125 665.320312 L 520.203125 665.320312 C 548.359375 665.320312 571.394531 688.363281 571.394531 716.527344 C 571.390625 744.691406 548.355469 767.734375 520.199219 767.734375 Z M 520.199219 767.734375 " fill-opacity="1" fill-rule="nonzero"/><g clip-path="url(#bc3d8f04bf)"><path fill="#1e1e1e" d="M 520.199219 770.261719 L 351.3125 770.261719 C 321.691406 770.261719 297.59375 746.15625 297.59375 716.527344 C 297.59375 686.898438 321.691406 662.792969 351.3125 662.792969 L 520.203125 662.792969 C 549.824219 662.792969 573.921875 686.898438 573.921875 716.527344 C 573.917969 746.15625 549.820312 770.261719 520.199219 770.261719 Z M 351.3125 667.84375 C 324.476562 667.84375 302.644531 689.683594 302.644531 716.527344 C 302.644531 743.371094 324.476562 765.210938 351.3125 765.210938 L 520.199219 765.210938 C 547.03125 765.210938 568.867188 743.371094 568.871094 716.527344 C 568.871094 689.683594 547.035156 667.84375 520.203125 667.84375 Z M 351.3125 667.84375 " fill-opacity="1" fill-rule="nonzero"/></g><g clip-path="url(#bb36e7b5f7)"><path fill="#0075ff" d="M 520.199219 756.785156 L 351.3125 756.785156 C 323.15625 756.785156 300.117188 733.742188 300.117188 705.578125 C 300.117188 677.414062 323.15625 654.371094 351.3125 654.371094 L 520.203125 654.371094 C 548.359375 654.371094 571.394531 677.414062 571.394531 705.578125 C 571.390625 733.742188 548.355469 756.785156 520.199219 756.785156 Z M 520.199219 756.785156 " fill-opacity="1" fill-rule="nonzero"/></g><path fill="#1b1918" d="M 536.199219 802.238281 L 536.199219 802.644531 L 536.195312 802.835938 C 536.195312 817.332031 524.589844 829.128906 510.3125 829.128906 C 502.257812 829.128906 495.707031 825.992188 490.867188 819.789062 L 490.800781 819.714844 C 490.667969 819.5625 490.621094 819.507812 490.5625 819.429688 L 490.546875 819.410156 L 473.699219 796.058594 L 473.644531 795.96875 C 473.628906 795.9375 473.613281 795.917969 473.601562 795.898438 C 472.285156 794.207031 470.394531 791.25 470.578125 789.101562 C 470.9375 784.902344 473.960938 782.417969 478.171875 782.203125 C 480.894531 782.066406 484.359375 783.664062 486.0625 785.785156 C 486.125 785.839844 486.1875 785.902344 486.234375 785.96875 L 487.839844 788.007812 L 487.839844 750.078125 C 488 745.507812 490.890625 741.925781 495.5 741.925781 C 500.09375 741.925781 503.820312 745.484375 504 750.035156 L 504.003906 750.164062 L 504.003906 764.878906 C 504.664062 764.71875 505.351562 764.636719 506.042969 764.636719 C 509.03125 764.636719 511.792969 766.191406 513.382812 768.640625 C 514.445312 768.191406 515.59375 767.957031 516.773438 767.957031 C 519.726562 767.957031 522.414062 769.425781 524.011719 771.800781 C 525.09375 771.335938 526.269531 771.09375 527.464844 771.09375 C 531.90625 771.09375 535.640625 774.421875 536.140625 778.835938 C 536.183594 779.144531 536.195312 779.484375 536.195312 779.832031 L 536.195312 802.117188 C 536.199219 802.148438 536.199219 802.183594 536.199219 802.238281 Z M 536.199219 802.238281 " fill-opacity="1" fill-rule="nonzero"/><path fill="#ffffff" d="M 534.792969 777.011719 C 534.792969 776.738281 534.777344 776.460938 534.746094 776.199219 C 534.347656 772.648438 531.335938 769.894531 527.683594 769.894531 C 526.164062 769.894531 524.753906 770.371094 523.597656 771.1875 C 523.589844 771.195312 523.578125 771.191406 523.574219 771.179688 C 522.519531 768.585938 519.96875 766.757812 516.992188 766.757812 C 515.480469 766.757812 514.089844 767.230469 512.933594 768.03125 C 512.925781 768.039062 512.914062 768.035156 512.910156 768.023438 C 511.890625 765.339844 509.300781 763.433594 506.261719 763.433594 C 504.933594 763.433594 503.6875 763.796875 502.628906 764.429688 C 502.617188 764.4375 502.601562 764.429688 502.601562 764.414062 L 502.601562 747.339844 L 502.597656 747.304688 C 502.472656 743.628906 499.429688 740.722656 495.722656 740.722656 C 492.015625 740.722656 488.96875 743.628906 488.839844 747.304688 L 488.839844 789.8125 C 488.839844 789.828125 488.820312 789.835938 488.808594 789.824219 L 484.351562 784.160156 C 484.328125 784.132812 484.304688 784.113281 484.277344 784.097656 C 482.957031 782.378906 480.839844 781.300781 478.476562 781.421875 C 475.082031 781.59375 472.285156 784.289062 471.996094 787.671875 C 471.839844 789.527344 472.414062 791.238281 473.46875 792.558594 C 473.503906 792.617188 473.523438 792.640625 473.578125 792.734375 L 491.199219 815.15625 C 491.253906 815.226562 491.28125 815.265625 491.402344 815.398438 C 491.433594 815.433594 491.480469 815.488281 491.507812 815.523438 C 495.949219 821.226562 502.828125 824.679688 510.539062 824.679688 C 523.941406 824.679688 534.796875 813.636719 534.796875 800.011719 C 534.796875 799.800781 534.800781 799.605469 534.796875 799.398438 C 534.800781 799.355469 534.796875 799.351562 534.796875 799.332031 L 534.796875 777.011719 Z M 534.792969 777.011719 " fill-opacity="1" fill-rule="nonzero"/><path fill="#1b1918" d="M 536.199219 799.292969 L 536.199219 777.003906 C 536.199219 776.660156 536.183594 776.320312 536.144531 776.011719 C 535.644531 771.597656 531.910156 768.269531 527.46875 768.269531 C 526.269531 768.269531 525.097656 768.511719 524.015625 768.976562 C 522.417969 766.597656 519.730469 765.132812 516.777344 765.132812 C 515.597656 765.132812 514.449219 765.367188 513.386719 765.816406 C 511.796875 763.367188 509.035156 761.8125 506.046875 761.8125 C 505.355469 761.8125 504.667969 761.890625 504.007812 762.050781 L 504.007812 747.339844 L 504.003906 747.207031 C 503.824219 742.65625 500.097656 739.101562 495.503906 739.101562 C 490.894531 739.101562 488.003906 742.683594 487.84375 747.253906 L 487.84375 785.179688 L 486.242188 783.144531 C 486.191406 783.078125 486.132812 783.011719 486.066406 782.957031 C 484.363281 780.839844 480.898438 779.242188 478.175781 779.378906 C 473.964844 779.59375 470.941406 782.078125 470.582031 786.277344 C 470.398438 788.425781 472.289062 791.382812 473.605469 793.074219 C 473.617188 793.089844 473.632812 793.113281 473.648438 793.140625 L 473.703125 793.234375 L 490.550781 816.585938 L 490.566406 816.601562 C 490.625 816.683594 490.671875 816.738281 490.808594 816.890625 L 490.871094 816.964844 C 495.710938 823.167969 502.261719 826.304688 510.316406 826.304688 C 524.59375 826.304688 536.199219 814.507812 536.199219 800.011719 L 536.203125 799.820312 L 536.203125 799.414062 C 536.203125 799.359375 536.203125 799.320312 536.199219 799.292969 Z M 532.960938 799.347656 L 532.953125 799.367188 L 532.960938 799.429688 L 532.960938 800.011719 C 532.960938 812.71875 522.800781 823.058594 510.316406 823.058594 C 503.257812 823.058594 497.628906 820.367188 493.410156 814.945312 L 493.226562 814.730469 C 493.160156 814.652344 493.136719 814.628906 493.113281 814.59375 L 476.378906 791.390625 C 476.359375 791.359375 476.347656 791.335938 476.328125 791.3125 L 476.203125 791.125 C 475.363281 790.074219 473.699219 787.90625 473.8125 786.550781 C 474.035156 783.964844 475.738281 782.753906 478.339844 782.621094 C 480.066406 782.535156 482.566406 783.71875 483.617188 785.089844 L 483.867188 785.410156 L 483.914062 785.433594 L 488.167969 790.839844 C 488.601562 791.382812 489.332031 791.59375 489.992188 791.367188 L 491.089844 790.96875 L 491.089844 747.339844 C 491.199219 744.539062 492.664062 742.347656 495.503906 742.347656 C 498.355469 742.347656 500.664062 744.546875 500.765625 747.363281 L 500.765625 775.277344 C 500.765625 776.089844 501.421875 776.75 502.238281 776.75 C 503.050781 776.75 503.710938 776.089844 503.710938 775.277344 L 503.710938 765.582031 C 504.433594 765.234375 505.234375 765.054688 506.046875 765.054688 C 508.308594 765.054688 510.371094 766.480469 511.175781 768.585938 C 511.21875 768.699219 511.273438 768.808594 511.335938 768.90625 L 511.335938 778.042969 C 511.335938 778.855469 511.996094 779.515625 512.808594 779.515625 C 513.625 779.515625 514.28125 778.855469 514.28125 778.042969 L 514.28125 768.980469 C 515.046875 768.585938 515.898438 768.378906 516.777344 768.378906 C 519.015625 768.378906 521.011719 769.71875 521.847656 771.773438 C 521.882812 771.855469 521.921875 771.9375 521.972656 772.011719 L 521.972656 780.488281 C 521.972656 781.300781 522.628906 781.960938 523.445312 781.960938 C 524.257812 781.960938 524.917969 781.300781 524.917969 780.488281 L 524.917969 772.148438 C 525.695312 771.730469 526.566406 771.515625 527.46875 771.515625 C 530.261719 771.515625 532.605469 773.605469 532.921875 776.390625 C 532.945312 776.585938 532.960938 776.792969 532.960938 777.003906 Z M 532.960938 799.347656 " fill-opacity="1" fill-rule="nonzero"/><path fill="#ffffff" d="M 361.414062 720.53125 C 356.835938 720.53125 352.984375 719.277344 349.871094 716.773438 C 348.90625 716 348.429688 715.109375 348.429688 714.097656 C 348.429688 713.207031 348.777344 712.410156 349.484375 711.707031 C 350.191406 711 351.097656 710.652344 352.210938 710.652344 C 353.117188 710.652344 353.933594 710.933594 354.65625 711.496094 C 356.449219 712.90625 358.707031 713.609375 361.417969 713.609375 C 362.488281 713.609375 363.519531 713.367188 364.511719 712.878906 C 365.476562 712.414062 365.957031 711.707031 365.957031 710.742188 C 365.957031 710.195312 365.730469 709.722656 365.265625 709.328125 C 364.804688 708.933594 364.144531 708.558594 363.277344 708.191406 C 362.410156 707.828125 361.425781 707.464844 360.328125 707.089844 C 359.128906 706.675781 357.90625 706.203125 356.648438 705.6875 C 355.394531 705.164062 354.222656 704.53125 353.121094 703.773438 C 352.023438 703.015625 351.136719 702.09375 350.460938 701 C 349.789062 699.910156 349.445312 698.609375 349.445312 697.097656 C 349.445312 693.9375 350.699219 691.449219 353.203125 689.625 C 355.355469 688.070312 358.085938 687.289062 361.390625 687.289062 C 363.113281 687.289062 364.878906 687.539062 366.699219 688.035156 C 368.511719 688.53125 370.097656 689.269531 371.449219 690.25 C 372.519531 691.035156 373.050781 691.964844 373.050781 693.03125 C 373.050781 693.925781 372.703125 694.71875 371.996094 695.421875 C 371.289062 696.128906 370.386719 696.480469 369.292969 696.480469 C 368.449219 696.480469 367.679688 696.246094 366.984375 695.769531 C 366.226562 695.246094 365.332031 694.859375 364.308594 694.601562 C 363.277344 694.339844 362.3125 694.210938 361.402344 694.210938 C 360.292969 694.210938 359.3125 694.394531 358.46875 694.765625 C 357.671875 695.136719 357.269531 695.796875 357.269531 696.75 C 357.269531 697.195312 357.476562 697.582031 357.878906 697.914062 C 358.289062 698.253906 358.894531 698.582031 359.703125 698.917969 C 360.511719 699.253906 361.433594 699.59375 362.472656 699.953125 C 363.699219 700.367188 364.964844 700.847656 366.265625 701.390625 C 367.558594 701.933594 368.78125 702.597656 369.921875 703.386719 C 371.0625 704.179688 371.988281 705.148438 372.703125 706.292969 C 373.417969 707.4375 373.773438 708.804688 373.773438 710.410156 C 373.773438 712.027344 373.425781 713.46875 372.738281 714.726562 C 372.046875 715.984375 371.113281 717.050781 369.925781 717.917969 C 368.738281 718.785156 367.410156 719.4375 365.929688 719.875 C 364.445312 720.3125 362.949219 720.53125 361.414062 720.53125 Z M 361.414062 720.53125 " fill-opacity="1" fill-rule="nonzero"/><path fill="#ffffff" d="M 393.042969 720.53125 C 390.523438 720.53125 388.3125 720.007812 386.414062 718.972656 C 384.515625 717.933594 383.054688 716.507812 382.035156 714.691406 C 381.011719 712.878906 380.496094 710.773438 380.496094 708.386719 L 380.496094 690.699219 C 380.496094 689.691406 380.902344 688.871094 381.710938 688.242188 C 382.515625 687.609375 383.457031 687.292969 384.519531 687.292969 C 385.601562 687.292969 386.550781 687.609375 387.355469 688.242188 C 388.164062 688.871094 388.570312 689.691406 388.570312 690.699219 L 388.570312 708.386719 C 388.570312 710.03125 388.953125 711.3125 389.714844 712.222656 C 390.480469 713.132812 391.585938 713.589844 393.039062 713.589844 C 396.199219 713.589844 397.777344 711.855469 397.777344 708.386719 L 397.777344 690.742188 C 397.777344 689.808594 398.15625 689 398.914062 688.316406 C 399.671875 687.636719 400.589844 687.292969 401.671875 687.292969 C 402.769531 687.292969 403.695312 687.636719 404.453125 688.316406 C 405.210938 689 405.589844 689.808594 405.589844 690.742188 L 405.589844 708.386719 C 405.589844 710.773438 405.074219 712.878906 404.050781 714.691406 C 403.03125 716.507812 401.566406 717.9375 399.671875 718.972656 C 397.773438 720.007812 395.5625 720.53125 393.042969 720.53125 Z M 393.042969 720.53125 " fill-opacity="1" fill-rule="nonzero"/><path fill="#ffffff" d="M 426.757812 720.195312 L 419.058594 720.195312 C 417.960938 720.195312 417.066406 719.84375 416.359375 719.136719 C 415.652344 718.429688 415.300781 717.632812 415.300781 716.746094 L 415.300781 691.054688 C 415.300781 690.160156 415.652344 689.367188 416.359375 688.664062 C 417.066406 687.957031 417.964844 687.605469 419.058594 687.605469 L 426.203125 687.605469 C 429.507812 687.605469 432.273438 688.289062 434.496094 689.652344 C 437.253906 691.339844 438.632812 693.777344 438.632812 696.949219 C 438.632812 699.839844 437.683594 702.074219 435.785156 703.644531 C 438.054688 705.25 439.1875 707.648438 439.1875 710.855469 C 439.1875 714.019531 437.808594 716.449219 435.050781 718.152344 C 432.832031 719.511719 430.066406 720.195312 426.757812 720.195312 Z M 423.554688 700.484375 C 425.511719 700.484375 427.105469 700.28125 428.335938 699.886719 C 429.832031 699.398438 430.578125 698.417969 430.578125 696.953125 C 430.578125 696 430.105469 695.355469 429.15625 695.019531 C 428.238281 694.679688 427.160156 694.503906 425.933594 694.503906 L 423.378906 694.503906 L 423.378906 700.488281 L 423.554688 700.488281 Z M 426.492188 713.300781 C 427.722656 713.300781 428.792969 713.132812 429.714844 712.789062 C 430.667969 712.433594 431.136719 711.785156 431.136719 710.855469 C 431.136719 709.964844 430.929688 709.328125 430.515625 708.941406 C 429.550781 708.035156 428.0625 707.519531 426.046875 707.382812 C 425.082031 707.324219 424.191406 707.289062 423.375 707.289062 L 423.375 713.296875 Z M 426.492188 713.300781 " fill-opacity="1" fill-rule="nonzero"/><path fill="#ffffff" d="M 474.195312 720.53125 C 473.097656 720.53125 472.148438 720.210938 471.347656 719.574219 C 470.546875 718.933594 470.148438 718.121094 470.148438 717.128906 L 470.148438 703.179688 L 465.339844 709.898438 C 464.617188 710.9375 463.585938 711.453125 462.246094 711.453125 C 460.835938 711.453125 459.761719 710.917969 459.023438 709.851562 L 454.839844 703.667969 L 454.839844 717.050781 C 454.839844 717.953125 454.488281 718.757812 453.773438 719.464844 C 453.058594 720.171875 452.15625 720.523438 451.058594 720.523438 C 449.945312 720.523438 449.035156 720.171875 448.328125 719.464844 C 447.621094 718.757812 447.273438 717.957031 447.273438 717.050781 L 447.273438 690.765625 C 447.273438 689.863281 447.628906 689.058594 448.34375 688.351562 C 449.054688 687.644531 449.957031 687.292969 451.058594 687.292969 C 452.390625 687.292969 453.433594 687.851562 454.191406 688.960938 L 462.554688 701.199219 L 471.339844 688.917969 C 472.109375 687.835938 473.140625 687.292969 474.429688 687.292969 C 475.542969 687.292969 476.453125 687.644531 477.160156 688.351562 C 477.867188 689.058594 478.214844 689.859375 478.214844 690.765625 L 478.214844 717.128906 C 478.214844 718.121094 477.8125 718.941406 477.003906 719.574219 C 476.199219 720.210938 475.265625 720.53125 474.195312 720.53125 Z M 474.195312 720.53125 " fill-opacity="1" fill-rule="nonzero"/><path fill="#ffffff" d="M 492.832031 720.53125 C 491.75 720.53125 490.800781 720.210938 489.996094 719.574219 C 489.1875 718.933594 488.78125 718.113281 488.78125 717.105469 L 488.78125 690.699219 C 488.78125 689.691406 489.1875 688.867188 489.996094 688.230469 C 490.800781 687.589844 491.746094 687.273438 492.832031 687.273438 C 493.898438 687.273438 494.839844 687.59375 495.65625 688.230469 C 496.472656 688.863281 496.878906 689.691406 496.878906 690.699219 L 496.878906 717.109375 C 496.878906 718.117188 496.472656 718.941406 495.65625 719.578125 C 494.84375 720.210938 493.898438 720.53125 492.832031 720.53125 Z M 492.832031 720.53125 " fill-opacity="1" fill-rule="nonzero"/><path fill="#ffffff" d="M 513.183594 720.503906 C 512.101562 720.503906 511.15625 720.191406 510.347656 719.558594 C 509.539062 718.925781 509.136719 718.109375 509.136719 717.101562 L 509.136719 694.523438 L 505.445312 694.523438 C 504.332031 694.523438 503.410156 694.179688 502.6875 693.5 C 501.964844 692.816406 501.597656 692 501.597656 691.054688 C 501.597656 690.105469 501.960938 689.292969 502.6875 688.621094 C 503.410156 687.945312 504.332031 687.605469 505.445312 687.605469 L 520.921875 687.605469 C 522.035156 687.605469 522.957031 687.945312 523.679688 688.621094 C 524.402344 689.292969 524.769531 690.105469 524.769531 691.054688 C 524.769531 692 524.40625 692.816406 523.679688 693.5 C 522.957031 694.179688 522.035156 694.523438 520.921875 694.523438 L 517.230469 694.523438 L 517.230469 717.105469 C 517.230469 718.113281 516.824219 718.929688 516.007812 719.5625 C 515.191406 720.191406 514.25 720.503906 513.183594 720.503906 Z M 513.183594 720.503906 " fill-opacity="1" fill-rule="nonzero"/><g fill="#fed3d4" fill-opacity="1"><g transform="translate(159.617261, 85.467678)"><g><path d="M 51.84375 0 L 37.921875 0 C 37.285156 -0.882812 36.835938 -2.007812 36.578125 -3.375 C 36.347656 -4.4375 36.003906 -5.476562 35.546875 -6.5 C 35.085938 -7.519531 34.300781 -8.367188 33.1875 -9.046875 C 32.070312 -9.722656 30.414062 -10.082031 28.21875 -10.125 L 18.640625 -10.125 L 18.640625 0 L 3.921875 0 L 3.921875 -35.109375 L 27.875 -35.109375 C 33.59375 -35.109375 38.207031 -34.679688 41.71875 -33.828125 C 45.238281 -32.972656 47.804688 -31.625 49.421875 -29.78125 C 51.035156 -27.945312 51.84375 -25.554688 51.84375 -22.609375 C 51.84375 -20.140625 51.285156 -18.066406 50.171875 -16.390625 C 49.054688 -14.710938 47.289062 -13.382812 44.875 -12.40625 C 47.207031 -11.445312 48.71875 -10.289062 49.40625 -8.9375 C 50.101562 -7.59375 50.535156 -6.113281 50.703125 -4.5 C 50.859375 -3.0625 51.238281 -1.5625 51.84375 0 Z M 18.640625 -18.796875 L 27.0625 -18.8125 C 29.40625 -18.8125 31.253906 -18.914062 32.609375 -19.125 C 33.960938 -19.34375 34.960938 -19.632812 35.609375 -20 C 36.253906 -20.363281 36.664062 -20.769531 36.84375 -21.21875 C 37.019531 -21.664062 37.109375 -22.128906 37.109375 -22.609375 C 37.109375 -23.078125 37.019531 -23.539062 36.84375 -24 C 36.664062 -24.457031 36.253906 -24.867188 35.609375 -25.234375 C 34.960938 -25.597656 33.960938 -25.882812 32.609375 -26.09375 C 31.253906 -26.3125 29.40625 -26.421875 27.0625 -26.421875 L 18.640625 -26.421875 Z M 18.640625 -18.796875 "/></g></g><g transform="translate(213.427338, 85.467678)"><g><path d="M 46.1875 0 L 3.921875 0 L 3.921875 -35.109375 L 44.265625 -35.109375 L 44.265625 -26.421875 L 18.640625 -26.421875 L 18.640625 -20.921875 L 40.296875 -20.921875 L 40.296875 -14.171875 L 18.640625 -14.171875 L 18.640625 -8.6875 L 46.1875 -8.6875 Z M 46.1875 0 "/></g></g><g transform="translate(261.584788, 85.467678)"><g><path d="M 33.71875 0 L 20.03125 0 L 0.359375 -35.09375 L 15.296875 -35.09375 L 26.890625 -10 L 38.46875 -35.09375 L 53.390625 -35.09375 Z M 33.71875 0 "/></g></g><g transform="translate(315.345925, 85.467678)"><g><path d="M 18.640625 0 L 3.921875 0 L 3.921875 -35.109375 L 18.640625 -35.109375 Z M 18.640625 0 "/></g></g><g transform="translate(337.907495, 85.467678)"><g><path d="M 46.1875 0 L 3.921875 0 L 3.921875 -35.109375 L 44.265625 -35.109375 L 44.265625 -26.421875 L 18.640625 -26.421875 L 18.640625 -20.921875 L 40.296875 -20.921875 L 40.296875 -14.171875 L 18.640625 -14.171875 L 18.640625 -8.6875 L 46.1875 -8.6875 Z M 46.1875 0 "/></g></g><g transform="translate(386.064945, 85.467678)"><g><path d="M 59.140625 0 L 46.859375 0 L 38.1875 -22.796875 L 29.53125 0 L 17.25 0 L 0.359375 -35.09375 L 15.296875 -35.09375 L 24.09375 -12.796875 L 33.546875 -35.09375 L 42.84375 -35.09375 L 52.28125 -12.796875 L 61.09375 -35.09375 L 76.015625 -35.09375 Z M 59.140625 0 "/></g></g><g transform="translate(462.461062, 85.467678)"><g/></g><g transform="translate(474.891948, 85.467678)"><g><path d="M 58.96875 0 L 44.046875 0 L 40.734375 -5.75 L 18.59375 -5.75 L 15.296875 0 L 0.359375 0 L 22.828125 -35.09375 L 36.5 -35.09375 Z M 35.765625 -14.4375 L 29.671875 -25.078125 L 23.5625 -14.4375 Z M 35.765625 -14.4375 "/></g></g><g transform="translate(534.232302, 85.467678)"><g><path d="M 56 0 L 38.484375 0 L 18.640625 -23.765625 L 18.640625 0 L 3.921875 0 L 3.921875 -35.109375 L 21.4375 -35.109375 L 41.28125 -11.46875 L 41.28125 -35.109375 L 56 -35.109375 Z M 56 0 "/></g></g><g transform="translate(594.159942, 85.467678)"><g><path d="M 27.40625 0 L 3.921875 0 L 3.921875 -35.109375 L 27.40625 -35.109375 C 37.007812 -35.109375 43.914062 -33.765625 48.125 -31.078125 C 51.519531 -28.898438 53.453125 -25.945312 53.921875 -22.21875 C 54.140625 -20.601562 54.25 -19.046875 54.25 -17.546875 C 54.25 -16.054688 54.144531 -14.5 53.9375 -12.875 C 53.726562 -11.257812 53.179688 -9.6875 52.296875 -8.15625 C 51.421875 -6.632812 50.023438 -5.257812 48.109375 -4.03125 C 46.191406 -2.8125 43.566406 -1.832031 40.234375 -1.09375 C 36.898438 -0.363281 32.625 0 27.40625 0 Z M 26.015625 -8.6875 C 33.492188 -8.6875 37.722656 -10.578125 38.703125 -14.359375 C 38.960938 -15.421875 39.09375 -16.484375 39.09375 -17.546875 C 39.09375 -18.617188 38.957031 -19.679688 38.6875 -20.734375 C 38.425781 -21.785156 37.859375 -22.738281 36.984375 -23.59375 C 36.109375 -24.457031 34.796875 -25.144531 33.046875 -25.65625 C 31.304688 -26.164062 28.960938 -26.421875 26.015625 -26.421875 L 18.640625 -26.421875 L 18.640625 -8.6875 Z M 26.015625 -8.6875 "/></g></g></g><g fill="#fed3d4" fill-opacity="1"><g transform="translate(257.80696, 155.339651)"><g><path d="M 23.1875 0.765625 C 18.445312 0.765625 14.625 0.253906 11.71875 -0.765625 C 8.8125 -1.785156 6.597656 -3.1875 5.078125 -4.96875 C 3.566406 -6.757812 2.550781 -8.820312 2.03125 -11.15625 L 17.671875 -11.15625 C 18.828125 -9.488281 20.664062 -8.65625 23.1875 -8.65625 C 25.71875 -8.65625 27.5625 -9.488281 28.71875 -11.15625 C 28.820312 -11.320312 28.875 -11.46875 28.875 -11.59375 C 28.875 -12.039062 28.289062 -12.375 27.125 -12.59375 C 25.957031 -12.8125 24.210938 -12.976562 21.890625 -13.09375 C 18.972656 -13.21875 15.910156 -13.523438 12.703125 -14.015625 C 5.535156 -15.128906 1.953125 -18.007812 1.953125 -22.65625 C 1.953125 -23.050781 1.976562 -23.46875 2.03125 -23.90625 C 2.550781 -26.238281 3.566406 -28.296875 5.078125 -30.078125 C 6.597656 -31.867188 8.8125 -33.273438 11.71875 -34.296875 C 14.625 -35.316406 18.445312 -35.828125 23.1875 -35.828125 C 27.9375 -35.828125 31.765625 -35.316406 34.671875 -34.296875 C 37.578125 -33.273438 39.785156 -31.867188 41.296875 -30.078125 C 42.816406 -28.296875 43.835938 -26.238281 44.359375 -23.90625 L 28.71875 -23.90625 C 27.5625 -25.570312 25.71875 -26.40625 23.1875 -26.40625 C 20.664062 -26.40625 18.828125 -25.570312 17.671875 -23.90625 C 17.585938 -23.769531 17.546875 -23.644531 17.546875 -23.53125 C 17.546875 -23.144531 18.101562 -22.859375 19.21875 -22.671875 C 20.332031 -22.484375 21.976562 -22.320312 24.15625 -22.1875 C 26.332031 -22.0625 28.648438 -21.847656 31.109375 -21.546875 C 33.578125 -21.253906 35.882812 -20.742188 38.03125 -20.015625 C 40.175781 -19.296875 41.851562 -18.226562 43.0625 -16.8125 C 44.007812 -15.71875 44.484375 -14.332031 44.484375 -12.65625 C 44.484375 -12.175781 44.441406 -11.675781 44.359375 -11.15625 C 43.835938 -8.820312 42.816406 -6.757812 41.296875 -4.96875 C 39.785156 -3.1875 37.578125 -1.785156 34.671875 -0.765625 C 31.765625 0.253906 27.9375 0.765625 23.1875 0.765625 Z M 23.1875 0.765625 "/></g></g><g transform="translate(304.251493, 155.339651)"><g><path d="M 24.6875 0.765625 C 16.125 0.765625 10.097656 -1.015625 6.609375 -4.578125 C 3.671875 -7.554688 2.203125 -11.867188 2.203125 -17.515625 L 2.203125 -35.09375 L 16.9375 -35.09375 L 16.9375 -17.515625 C 16.9375 -15.066406 17.347656 -13.132812 18.171875 -11.71875 C 19.367188 -9.675781 21.539062 -8.65625 24.6875 -8.65625 C 27.863281 -8.65625 30.039062 -9.675781 31.21875 -11.71875 C 32.050781 -13.1875 32.46875 -15.117188 32.46875 -17.515625 L 32.46875 -35.09375 L 47.203125 -35.09375 L 47.203125 -17.328125 C 47.203125 -11.804688 45.738281 -7.554688 42.8125 -4.578125 C 39.3125 -1.015625 33.269531 0.765625 24.6875 0.765625 Z M 24.6875 0.765625 "/></g></g><g transform="translate(353.656925, 155.339651)"><g><path d="M 29.09375 0 L 3.921875 0 L 3.921875 -35.09375 L 29.625 -35.09375 C 34.195312 -35.09375 37.957031 -34.882812 40.90625 -34.46875 C 43.863281 -34.050781 46.140625 -33.394531 47.734375 -32.5 C 49.335938 -31.613281 50.421875 -30.484375 50.984375 -29.109375 C 51.554688 -27.742188 51.84375 -26.109375 51.84375 -24.203125 C 51.789062 -22.703125 51.378906 -21.457031 50.609375 -20.46875 C 49.835938 -19.476562 48.929688 -18.742188 47.890625 -18.265625 C 46.859375 -17.785156 45.953125 -17.546875 45.171875 -17.546875 C 45.929688 -17.546875 46.828125 -17.394531 47.859375 -17.09375 C 48.890625 -16.789062 49.890625 -16.351562 50.859375 -15.78125 C 51.828125 -15.207031 52.632812 -14.515625 53.28125 -13.703125 C 53.925781 -12.890625 54.25 -11.957031 54.25 -10.90625 C 54.25 -9.539062 54.085938 -8.285156 53.765625 -7.140625 C 53.453125 -6.003906 52.816406 -4.992188 51.859375 -4.109375 C 50.898438 -3.234375 49.488281 -2.488281 47.625 -1.875 C 45.769531 -1.257812 43.335938 -0.789062 40.328125 -0.46875 C 37.328125 -0.15625 33.582031 0 29.09375 0 Z M 28.265625 -20.546875 C 30.410156 -20.546875 32.070312 -20.648438 33.25 -20.859375 C 34.4375 -21.078125 35.257812 -21.398438 35.71875 -21.828125 C 36.175781 -22.265625 36.40625 -22.816406 36.40625 -23.484375 C 36.40625 -24.171875 36.175781 -24.726562 35.71875 -25.15625 C 35.257812 -25.59375 34.4375 -25.910156 33.25 -26.109375 C 32.070312 -26.316406 30.410156 -26.421875 28.265625 -26.421875 L 18.640625 -26.421875 L 18.640625 -20.546875 Z M 28.265625 -8.65625 C 30.460938 -8.65625 32.242188 -8.710938 33.609375 -8.828125 C 34.984375 -8.941406 35.988281 -9.203125 36.625 -9.609375 C 37.257812 -10.023438 37.578125 -10.6875 37.578125 -11.59375 C 37.578125 -12.507812 37.257812 -13.175781 36.625 -13.59375 C 35.988281 -14.007812 34.984375 -14.269531 33.609375 -14.375 C 32.242188 -14.476562 30.460938 -14.53125 28.265625 -14.53125 L 18.640625 -14.53125 L 18.640625 -8.65625 Z M 28.265625 -8.65625 "/></g></g><g transform="translate(409.865087, 155.339651)"><g><path d="M 70.65625 0 L 55.9375 0 L 55.9375 -22.390625 L 42.765625 0 L 31.78125 0 L 18.640625 -22.390625 L 18.640625 0 L 3.921875 0 L 3.921875 -35.109375 L 21.40625 -35.109375 L 37.28125 -10.03125 L 53.140625 -35.109375 L 70.65625 -35.109375 Z M 70.65625 0 "/></g></g><g transform="translate(484.450406, 155.339651)"><g><path d="M 18.640625 0 L 3.921875 0 L 3.921875 -35.109375 L 18.640625 -35.109375 Z M 18.640625 0 "/></g></g><g transform="translate(507.011975, 155.339651)"><g><path d="M 29.953125 0 L 15.21875 0 L 15.21875 -26.421875 L 1.46875 -26.421875 L 1.46875 -35.109375 L 43.703125 -35.109375 L 43.703125 -26.421875 L 29.953125 -26.421875 Z M 29.953125 0 "/></g></g></g></svg>